<svg xmlns="http://www.w3.org/2000/svg" data-name="Layer 1" width="701.3636451122188" height="685.4545457698096" style=""><rect id="backgroundrect" width="100%" height="100%" x="0" y="0" fill="none" stroke="none" class="" style=""/><title>add_color</title><g class="currentLayer" style=""><title>Layer 1</title><path d="M53.546488902587896,614.8874211010742 c9.70332,35.86931 42.93939,58.08407 42.93939,58.08407 s17.50387,-35.94087 7.80055,-71.81018 s-42.93939,-58.08407 -42.93939,-58.08407 S43.84321890258789,579.0181111010742 53.546488902587896,614.8874211010742 z" fill="#3f3d56" id="svg_1"/><path d="M98.94481890258788,674.1698011010742 l-1.3249300000000002,-0.07235 c-0.40358000000000005,-0.021480000000000006 -40.65833,-2.50289 -67.28795,-28.42483 c-26.62849,-25.92193 -30.1912,-66.09585 -30.224,-66.49943 l-0.10800000000000001,-1.3215400000000002 l1.32492,0.07235 c0.40358000000000005,0.021480000000000006 40.65833,2.50289 67.28738,28.42483 c26.62906,25.92307 30.19177,66.09585 30.22456,66.49944 zM2.5639289025878895,580.3466311010742 c0.8733000000000001,7.17177 6.1306,41.032 29.38347,63.66645 c23.25287,22.63676 57.24023,26.9812 64.43348,27.66175 c-0.8732900000000001,-7.17291 -6.1306,-41.03083 -29.384,-63.66645 h0 C43.727018902587886,585.3546911010742 9.753788902587893,581.0237811010742 2.5639289025878895,580.3466311010742 z" fill="#3f3d56" id="svg_2"/><rect x="201.52493286132812" y="378.44000244140625" width="348.27996826171875" height="295.8499755859375" fill="#d0cde1" id="svg_4"/><path d="M495.5173389025879,634.9824911010742 H143.4630189025879 V335.3557511010742 H495.5173389025879 zM147.2429189025879,631.2026011010743 H491.7374389025879 V339.1356911010742 H147.2429189025879 z" fill="#3f3d56" id="svg_5"/><path d="M368.5749989025879,257.4000711010742 l-7.13859,8.43564 a6.8729000000000005,6.8729000000000005 0 0 1 -10.18293,0 l-7.13859,-8.43564 V198.7882911010742 h24.46011 z" fill="#2987f8" id="svg_6"/><path d="M395.2652189025879,151.22693110107423 H382.1260089025879 a31.10425,31.10425 0 0 0 5.47351,-17.66565 c0,-17.26141 -13.99316,-47.56128 -31.25457,-47.56128 s-31.25458,30.29987 -31.25458,47.56128 a31.10425,31.10425 0 0 0 5.47351,17.66565 H317.42471890258787 a10.0294,10.0294 0 0 0 -10,10 v7.17792 a10.0294,10.0294 0 0 0 10,10 H395.2652189025879 a10.0294,10.0294 0 0 0 10,-10 v-7.17792 A10.0294,10.0294 0 0 0 395.2652189025879,151.22693110107423 z" fill="#3f3d56" id="svg_7"/><path d="M356.3449489025879,276.3164111010742 a10.457699999999999,10.457699999999999 0 0 1 -8.43653,-4.21826 L337.0002189025879,257.5542011010742 V157.02149110107422 h38.68945 V257.5542011010742 l-10.9082,14.54395 A10.457699999999999,10.457699999999999 0 0 1 356.3449489025879,276.3164111010742 zM339.0002189025879,256.88721110107423 l10.50781,14.01074 a8.54614,8.54614 0 0 0 13.67383,0 l10.50781,-14.01074 V159.02149110107422 H339.0002189025879 z" fill="#3f3d56" id="svg_8"/><path d="M368.3449489025879,309.00000110107425 a12,12 0 0 1 -24,0 c0,-6.62741 12,-20 12,-20 S368.3449489025879,302.3725911010742 368.3449489025879,309.00000110107425 z" fill="#2987f8" id="svg_9"/><path d="M495.34494890258793,379.00000110107425 a139.001,139.001 0 0 1 -278,0 z" fill="#2987f8" opacity="0.2" id="svg_10"/><path d="M471.33493890258785,378.4400111010742 a114.9908,114.9908 0 0 1 -229.98,0 z" fill="#2987f8" id="svg_11"/><circle cx="266.3449401855469" cy="32" r="32" fill="#3f3d56" id="svg_12"/><circle cx="356.3449401855469" cy="32" r="32" fill="#2987f8" id="svg_13"/><circle cx="446.3449401855469" cy="32" r="32" fill="#d0cde1" id="svg_14"/><rect x="35.25149917602539" y="672.996337890625" width="652.8937377929688" height="2.315229892730713" fill="#3f3d56" id="svg_15"/></g></svg>