<svg xmlns="http://www.w3.org/2000/svg" data-name="Layer 1" width="881.50024" height="636.57254" style=""><rect id="backgroundrect" width="100%" height="100%" x="0" y="0" fill="none" stroke="none"/><title>product_photography</title><g class="currentLayer" style=""><title>Layer 1</title><path d="M226.91912207031248,371.45986014160155 s1.8498200000000002,36.99614 -77.07527,82.62469 c0,0 -0.09369000000000004,0.20172 577.75625,0 c0,0 -65.97642,-46.86175 -70.29264,-99.273 " opacity="0.2" id="svg_1"/><path d="M654.8640220703124,345.0111401416016 V34.13027014160156 a17.34639,17.34639 0 0 0 12.99772,-16.791 v0 a17.33921,17.33921 0 0 0 -17.33925,-17.3392 H234.38044207031248 a17.33922,17.33922 0 0 0 -17.33925,17.3392 v0 a17.33925,17.33925 0 0 0 17.33925,17.33925 h0.003770000000000001 L224.7501220703125,345.28627014160156 l-77.3497,98.99783 s-0.6503000000000001,0.0021700000000000005 577.75624,0 C725.1566620703124,444.2841001416016 724.7501220703125,445.28627014160156 654.8640220703124,345.0111401416016 z" fill="#e6e6e6" id="svg_2"/><ellipse cx="458.1011962890625" cy="399.5566711425781" rx="127.40580749511719" ry="9.800450325012207" opacity="0.2" id="svg_3"/><polygon points="234.38 34.679 654.864 46.925 655.046 33.925 234.38 34.679" opacity="0.2" id="svg_4"/><rect x="437.2257995605469" y="76.51818084716797" width="23.17491912841797" height="4.705830097198486" rx="1.4792300462722778" fill="#e6e8ec" id="svg_6"/><circle cx="466.573974609375" cy="78.87109375" r="2.6691598892211914" fill="#e6e8ec" id="svg_7"/><rect x="392.95367431640625" y="270.68426513671875" width="121.04390716552734" height="15.712430000305176" fill="#e6e6e6" id="svg_9"/><rect x="392.95367431640625" y="298.6174621582031" width="121.04390716552734" height="15.712430000305176" fill="#e6e6e6" id="svg_10"/><rect x="392.95367431640625" y="326.5506591796875" width="121.04390716552734" height="15.712430000305176" fill="#e6e6e6" id="svg_11"/><rect x="392.7109680175781" y="157.78753662109375" width="121.04390716552734" height="80.3079833984375" fill="#e6e6e6" id="svg_12"/><path d="M227.13412207031251,46.18691014160157 l-62.07389,0.38555000000000006 S62.88886207031251,100.93527014160156 134.6015720703125,213.51654014160158 c0,0 29.302,-6.93994 61.68834,16.9643 C196.28991207031248,230.48084014160156 215.1819720703125,50.42798014160155 227.13412207031251,46.18691014160157 z" fill="#2987f8" id="svg_13"/><path d="M208.66912207031248,46.75044014160156 c-11.12082,46.45358 -23.69259,166.2664 -23.69259,166.2664 c-28.93492,-21.3567 -55.389,-18.09518 -60.702890000000004,-17.15706 a205.62807,205.62807 0 0 0 10.32794,18.1056 s29.30193,-6.93995 61.68831,16.96429 c0,0 18.892,-180.05284 30.84419,-184.29391 z" opacity="0.2" id="svg_14"/><polygon points="134.216 104.405 128.818 130.623 60.984 118.293 60.961 118.285 59.419 87.441 72.528 87.441 134.216 104.405" fill="#3f3d56" id="svg_15"/><polygon points="71.433 87.441 60.984 118.293 60.961 118.285 59.419 87.441 71.433 87.441" opacity="0.2" id="svg_16"/><ellipse cx="131.90269470214844" cy="115.97184753417969" rx="7.711040019989014" ry="17.73539924621582" fill="#3f3d56" id="svg_17"/><path d="M91.80532207031251,490.7719301416016 a2.35677,2.35677 0 0 1 -2.357,-2.357 v-372.443 a2.35695,2.35695 0 1 1 4.7139,0 v372.443 A2.35677,2.35677 0 0 1 91.80532207031251,490.7719301416016 z" fill="#3f3d56" id="svg_18"/><path d="M124.18900207031248,556.3163501416016 a2.3574800000000002,2.3574800000000002 0 0 1 -2.31046,-1.90581 L89.49212207031249,388.3826501416015 a2.35705,2.35705 0 0 1 4.2844,-1.74377 L179.3688220703125,517.1955601416016 a2.35722,2.35722 0 0 1 -3.94237,2.58529 l-79.009,-120.51479 L126.50498207031251,553.5082701416015 a2.35672,2.35672 0 0 1 -1.8620800000000002,2.76481 A2.38952,2.38952 0 0 1 124.18900207031248,556.3163501416016 z" fill="#3f3d56" id="svg_19"/><path d="M2.3548720703124957,527.0137401416016 a2.35706,2.35706 0 0 1 -1.96888,-3.64867 l89.44814,-136.485 a2.35672,2.35672 0 0 1 3.94237,2.58344 l-89.44814,136.485 A2.35425,2.35425 0 0 1 2.3548720703124957,527.0137401416016 z" fill="#3f3d56" id="svg_20"/><path d="M654.3661220703125,46.18691014160157 l62.07389,0.38555000000000006 S818.6113820703125,100.93527014160156 746.8986720703125,213.51654014160158 c0,0 -29.302,-6.93994 -61.68834,16.9643 C685.2103320703125,230.48084014160156 666.3182720703124,50.42798014160155 654.3661220703125,46.18691014160157 z" fill="#2987f8" id="svg_21"/><path d="M672.8311220703125,46.75044014160156 c11.12082,46.45358 23.69259,166.2664 23.69259,166.2664 c28.93492,-21.3567 55.389,-18.09518 60.702890000000004,-17.15706 a205.62807,205.62807 0 0 1 -10.32794,18.1056 s-29.30193,-6.93995 -61.68831,16.96429 c0,0 -18.892,-180.05284 -30.84419,-184.29391 z" opacity="0.2" id="svg_22"/><polygon points="747.284 104.405 752.682 130.623 820.516 118.293 820.539 118.285 822.081 87.441 808.973 87.441 747.284 104.405" fill="#3f3d56" id="svg_23"/><polygon points="810.067 87.441 820.516 118.293 820.539 118.285 822.081 87.441 810.067 87.441" opacity="0.2" id="svg_24"/><ellipse cx="749.5975341796875" cy="115.97184753417969" rx="7.711040019989014" ry="17.73539924621582" fill="#3f3d56" id="svg_25"/><path d="M789.6949220703125,490.7719301416016 a2.35677,2.35677 0 0 1 -2.35695,-2.357 v-372.443 a2.35695,2.35695 0 1 1 4.7139,0 v372.443 A2.35677,2.35677 0 0 1 789.6949220703125,490.7719301416016 z" fill="#3f3d56" id="svg_26"/><path d="M757.3117020703125,556.3163501416016 a2.38246,2.38246 0 0 1 -0.4539,-0.04327000000000001 a2.35772,2.35772 0 0 1 -1.86254,-2.76481 l30.087,-154.24313 l-79.0085,120.51571 a2.35722,2.35722 0 1 1 -3.94237,-2.58529 l85.59232,-130.55668 a2.35733,2.35733 0 0 1 4.28486,1.74377 l-32.386,166.02789 A2.35834,2.35834 0 0 1 757.3117020703125,556.3163501416016 z" fill="#3f3d56" id="svg_27"/><path d="M879.1449120703126,527.0137401416016 a2.35346,2.35346 0 0 1 -1.9729999999999999,-1.0652300000000001 l-89.44814,-136.485 a2.35672,2.35672 0 0 1 3.94237,-2.58344 l89.44814,136.485 a2.35705,2.35705 0 0 1 -1.96934,3.64867 z" fill="#3f3d56" id="svg_28"/><path d="M387.02717207031253,327.2882701416016 l16.88725,-4.70176 s6.6146400000000005,-1.32049 2.5729,-14.239 s-12.05785,-9.303 -12.05785,-9.303 l-14.98069,4.35227 l-5.9145,1.82653 l8.32195,11.675 l0.6975700000000001,7.78162 z" fill="#3f3d56" id="svg_29"/><polygon points="354.396 293.155 349.098 314.319 376.245 340.629 378.579 341.214 384.805 339.465 390.104 318.302 384.737 312.658 390.223 311.221 378.516 299.856 372.407 301.138 367.507 296.273 370.814 294.951 371.126 293.706 367.12 290.553 354.396 293.155" fill="#3f3d56" id="svg_30"/><polygon points="379.831 323.006 376.324 337.011 360.144 321.715 364.196 307.515 379.831 323.006" fill="#2987f8" id="svg_31"/><polygon points="354.396 293.155 353.653 296.123 380.648 322.384 382.982 322.968 389.014 321.336 389.346 321.329 390.104 318.302 384.737 312.658 390.223 311.221 378.516 299.856 372.407 301.138 367.507 296.273 370.814 294.951 371.126 293.706 367.12 290.553 354.396 293.155" fill="none" stroke="#3f3d56" stroke-miterlimit="10" id="svg_32"/><ellipse cx="353.31251525878906" cy="1124.72412109375" rx="1.523959994316101" ry="2.245840072631836" transform="rotate(-75.9434814453125 -172.80351257324227,700.1229858398436) " fill="#2987f8" id="svg_33"/><ellipse cx="361.4753112792969" cy="1181.1590881347656" rx="1.523959994316101" ry="2.245840072631836" transform="rotate(-75.9434814453125 -181.79061889648435,733.9080810546875) " fill="#2987f8" id="svg_34"/><path d="M398.2472420703125,353.65227014160155 l-3.68271,-12.52121 s9.575,-22.83278 -1.47308,-25.04241 s-11.78467,21.35971 -11.78467,21.35971 l4.41925,13.99428 z" fill="#ffb6b6" id="svg_35"/><circle cx="329.87286376953125" cy="300.0487976074219" r="29.257469177246094" fill="#ffb6b6" id="svg_36"/><path d="M339.3385020703125,320.70112014160156 s1.721,21.51285 6.0236,23.23387 S298.8943620703125,357.70327014160154 298.8943620703125,357.70327014160154 l12.9077,-14.62874 s2.58155,-22.37336 -3.442,-27.53644 z" fill="#ffb6b6" id="svg_37"/><path d="M380.5702420703125,347.0233601416016 l11.78466,-1.47308 s13.99429,7.36542 13.99429,16.94045 s8.102,25.04241 8.102,25.04241 s5.89233,20.623170000000002 -7.36542,22.09625 s-25.04241,-22.09625 -25.04241,-22.09625 z" fill="#2987f8" id="svg_38"/><path d="M387.19912207031246,464.1334601416015 s25.779,-24.30587 33.14437,-22.83279 s22.09624,3.68271 22.09624,14.730830000000001 s-24.30586,36.82707 -24.30586,36.82707 s-18.41354,40.50978 -36.09054,41.98287 a305.05046,305.05046 0 0 0 -34.61744,5.15579 s8.10195,29.46165 3.6827,37.56361 s-21.3597,17.677 -22.83278,16.94045 s-22.09625,-19.88662 -30.93474,-47.13865 s-14.730830000000001,-47.87519 -6.6288800000000005,-49.34828 S387.19912207031246,464.1334601416015 387.19912207031246,464.1334601416015 z" fill="#2f2e41" id="svg_39"/><path d="M440.2301220703125,453.8218801416016 s5.15579,-0.73655 4.41925,11.78466 s-2.94617,57.45023 -6.6288800000000005,66.28873 s-4.41924,19.15008 -2.94616,22.83278 s4.41925,9.575 -0.7365400000000001,10.31159 s-26.51549,-2.20963 -28.72512,-2.94617 s-4.41925,-13.25775 -2.94617,-13.25775 s5.1558,-0.7365400000000001 3.68271,-5.89233 s-2.20962,-5.15579 0,-6.62887 s8.102,-3.68271 6.6288800000000005,-5.15579 s-2.94617,-36.09053 -2.94617,-36.09053 z" fill="#2f2e41" id="svg_40"/><path d="M432.8646820703125,562.8300101416015 s12.52121,-3.68271 13.99429,4.41925 c0,0 2.20963,12.5212 -7.36541,16.94045 a118.32886,118.32886 0 0 0 -17.677,10.31158 s-15.46737,5.89234 -16.20391,-1.47308 S408.55882207031254,559.1472701416016 408.55882207031254,559.1472701416016 z" fill="#2f2e41" id="svg_41"/><path d="M349.6355020703125,571.6685101416016 l-23.56933,-19.15008 s4.41925,23.56933 -1.47308,27.98858 l-2.6915400000000003,7.86887 l7.53706,6.16543 S352.5816720703125,590.8185901416016 349.6355020703125,571.6685101416016 z" fill="#2f2e41" id="svg_42"/><path d="M316.4911220703125,539.2606801416016 s15.46738,4.41925 13.25775,19.88662 s-5.0427,32.27154 -5.0427,32.27154 s-0.8496300000000001,41.38261 -11.89775,44.32877 s-13.99429,-2.94616 -13.99429,-2.94616 s-12.55861,-32.33761 -8.8385,-41.98286 c4.503,-11.67475 10.99166,-24.78374 8.8385,-28.72512 C296.6955020703125,558.2152101416016 300.2872220703125,537.0510601416015 316.4911220703125,539.2606801416016 z" fill="#2f2e41" id="svg_43"/><path d="M307.6526420703125,335.9752701416016 s5.89233,0.7365400000000001 15.46737,2.20963 s16.20391,-5.89233 21.3597,-4.41925 S392.3549020703125,345.5502701416016 392.3549020703125,345.5502701416016 l-6.62887,50.82136 s8.102,58.92332 6.62887,69.2349 s17.677,8.8385 6.6288800000000005,21.3597 s-30.1982,23.56933 -69.2349,19.88662 s-44.19249,-2.94617 -44.19249,-8.8385 s8.8385,-55.97715 5.89234,-60.3964 s-8.8385,-9.575 -5.89234,-14.730830000000001 s5.89234,-8.10195 1.47309,-12.5212 s-6.6288800000000005,-8.8385 -6.6288800000000005,-11.04812 s-10.31158,-38.30016 -10.31158,-38.30016 s4.41925,-17.677 9.575,-18.41353 s9.575,-4.41925 13.25775,-4.41925 s5.89233,0.7365400000000001 8.10195,0 z" fill="#2987f8" id="svg_44"/><path d="M378.2838520703125,289.78693014160154 c-0.37890000000000007,-1.7024400000000002 -2.23382,-7.394 -6.005,-8.78258 c-2.75915,-1.01592 -7.893,1.1306 -10.45,0.77452 l-0.32964000000000004,-0.93652 a21.25135,21.25135 0 0 0 -1.36723,-5.37631 A27.51307,27.51307 0 0 0 345.0370620703125,260.07927014160157 c-8.42185,-3.52064 -21.743,-6.43171 -33.30044,2.7935 c-15.87479,12.67135 -13.07748,31.63221 -11.924,36.893 q0.28866,1.3163500000000001 0.49457000000000007,2.64938 c0.71141,4.634 2.7616500000000004,5.18683 2.7616500000000004,5.18683 s-0.044150000000000016,-0.13353 -0.11624000000000002,-0.37719 l14.33856,1.3957700000000002 l7.75206,-1.323 c0.12968,0.7581000000000001 0.18000000000000002,1.20626 0.18000000000000002,1.20626 c22.62147,-3.45775 35.78554,-15.373 37.92333,-17.43929 c1.87926,1.24589 5.3793,3.2803 8.77353,3.7266000000000004 C376.89118207031254,295.4447201416016 378.6627620703125,291.48936014160154 378.2838520703125,289.78693014160154 zM319.9971220703125,301.17866014160154 l-18.21615,-0.6625900000000001 c-0.25823999999999997,-4.97225 1.02581,-10.786529999999999 8.34792,-11.08323 c7.05976,-0.28607000000000005 10.91322,5.45367 12.95533,10.70894 z" fill="#2f2e41" id="svg_45"/><ellipse cx="265.9753875732422" cy="344.3995056152344" rx="3.2225499153137207" ry="1.2193399667739868" transform="rotate(-9.685159683227539 -217.82667541503912,-44.77484130859379) " fill="#2f2e41" id="svg_46"/></g></svg>