<?xml version="1.0" encoding="utf-8"?>
<!-- Generator: Adobe Illustrator 27.3.1, SVG Export Plug-In . SVG Version: 6.00 Build 0)  -->
<svg version="1.1" id="Layer_1" xmlns="http://www.w3.org/2000/svg" xmlns:xlink="http://www.w3.org/1999/xlink" x="0px" y="0px"
	 viewBox="0 0 489.2 489.2" style="enable-background:new 0 0 489.2 489.2;" xml:space="preserve">
<style type="text/css">
	.st0{fill:#FFFFFF;}
	.st1{fill:none;stroke:#474748;stroke-width:12;stroke-linecap:round;stroke-linejoin:round;}
	.st2{fill:none;stroke:#474748;stroke-width:24;stroke-linecap:round;stroke-linejoin:round;}
	.st3{fill:none;stroke:#6597E0;stroke-width:24;stroke-linecap:round;stroke-linejoin:round;}
	.st4{fill:none;stroke:#474748;stroke-width:24;stroke-linecap:round;stroke-linejoin:round;stroke-miterlimit:10;}
	.st5{fill:none;stroke:#557EBF;stroke-width:24;stroke-linecap:round;stroke-linejoin:round;stroke-miterlimit:10;}
	.st6{fill:none;stroke:#6596DF;stroke-width:24;stroke-linecap:round;stroke-linejoin:round;stroke-miterlimit:10;}
</style>
<rect x="-35.2" y="-39.9" class="st0" width="571.4" height="556.1"/>
<path class="st1" d="M435,341.6"/>
<g id="Layer_2_00000178181519977082560720000014446928669038681483_">
	<g id="Layer_22">
		<g id="realstate">
			<path class="st2" d="M295.3,409.3"/>
			<path class="st2" d="M15.8,142.5"/>
			<path class="st2" d="M406.2,146.6"/>
			<path class="st2" d="M22.1,150.1"/>
			<path class="st2" d="M244.9,52.1"/>
			<path class="st3" d="M159.5,405.5"/>
		</g>
	</g>
</g>
<path class="st4" d="M359.3,53.3l63.4-40.2c0,0,67.8-0.1,52.3,69.6l-52.1,55.2"/>
<path class="st4" d="M403.8,77.7c19.5,23.5,26.8,55.3,12,67.6c-14.7,12.2-42.5,3.1-62-20.4s-23.4-52.5-8.7-64.7
	c8.7-7.2,21.9-7,35.3-0.8"/>
<polyline class="st4" points="418.5,181.8 418.4,208.5 418.3,226.6 418.3,241.4 417.6,477.4 "/>
<polyline class="st4" points="468.4,97.9 468.5,178.8 367.4,178 366.8,141.5 "/>
<path class="st4" d="M52.6,127.2c0,0-51-0.1-39.3,52.4l39.2,41.5"/>
<line class="st4" x1="100.2" y1="157.5" x2="76.3" y2="142.3"/>
<ellipse transform="matrix(0.6392 -0.769 0.769 0.6392 -119.3031 135.0381)" class="st4" cx="84.3" cy="194.7" rx="41.6" ry="26.1"/>
<line class="st4" x1="55.7" y1="254.1" x2="55.5" y2="477.2"/>
<polyline class="st4" points="18.2,191 18.1,251.9 94.1,251.3 94.6,223.8 "/>
<path class="st5" d="M264.8,327.6c0,0-34.9,105.2-81.2,53.7c0,0-4.4,1.6-10.8,4.3c-2.6,1.1-5.6,2.5-8.8,4
	c-15.2,7.2-34.8,18.6-41.9,31.4C110,443.1,248,433.7,248,433.7s8.5-7.9,18.6-37.3c0,0,5.8-20.3,21.6-32c3.7-2.7,7.9-5,12.7-6.4
	c3.9-1.2,8.2-1.8,13-1.6l6.9,76L335,322.5c0,0,3.3-24.1-18.2-36.8c-1-0.6-2-1.1-3.1-1.6l-6.5-2.9l-10-4.4l-11.9-5.2L275,299.8"/>
<path class="st4" d="M468.9,123.1"/>
<path class="st6" d="M287.1,366.4"/>
</svg>
