<svg xmlns="http://www.w3.org/2000/svg" viewBox="0 0 490.7 361.79"><defs><style>.cls-1,.cls-2{fill:none;stroke-linecap:round;stroke-linejoin:round;stroke-width:24px;}.cls-1{stroke:#474748;}.cls-2{stroke:#557ebf;}</style></defs><title>baby</title><g id="Layer_2" data-name="Layer 2"><g id="Layer_22" data-name="Layer 22"><g id="baby"><g id="F"><path class="cls-1" d="M43.74,285.86l-5.87,1a12.12,12.12,0,0,1-14-13.86l6.84-42.74,6.51-40.7L40,172.1c1.82-11.39,17-14,22.58-3.94l8.55,15.5L91,219.75l20.91,37.91a12.12,12.12,0,0,1-8.53,17.79L73.33,280.7"/><path class="cls-1" d="M52.76,125.57A27.3,27.3,0,1,1,66.2,97.12a28.23,28.23,0,0,1,.41,4.72"/></g><line class="cls-1" x1="294.1" y1="272.33" x2="478.7" y2="240.12"/><line class="cls-1" x1="31.05" y1="318.23" x2="207.29" y2="287.47"/><g id="F-2" data-name="F"><path class="cls-1" d="M434.91,217.61l-38.8,6.77a12.12,12.12,0,0,1-14.05-13.86l6.83-42.74,6.52-40.71,2.79-17.48c1.82-11.39,17-14,22.58-3.94l8.56,15.51,19.91,36.09,20.91,37.9a12.14,12.14,0,0,1-4.26,16.19"/><path class="cls-1" d="M393.7,66.34A27.3,27.3,0,1,0,370.65,44a26.82,26.82,0,0,0,1.21,4.58"/></g><path class="cls-2" d="M281.35,305.31l-16.59-28.73a10.49,10.49,0,0,0-18.18,0L213.4,334a10.5,10.5,0,0,0,9.09,15.75h66.36A10.5,10.5,0,0,0,297.94,334l-1.15-2"/></g></g></g></svg>