<svg xmlns="http://www.w3.org/2000/svg" viewBox="0 0 480.55 489.77"><defs><style>.cls-1,.cls-2{fill:none;stroke-linecap:round;stroke-linejoin:round;stroke-width:24px;}.cls-1{stroke:#557ebf;}.cls-2{stroke:#474748;}</style></defs><title>birthday_1</title><g id="Layer_2" data-name="Layer 2"><g id="Layer_22" data-name="Layer 22"><g id="birthday"><path class="cls-1" d="M437.74,370.75a53.82,53.82,0,0,1-44.2-43.18,53.77,53.77,0,0,1-105.7,0,53.78,53.78,0,0,1-105.72,0v0a53.77,53.77,0,0,1-105.7,0,53.85,53.85,0,0,1-31.27,39.36"/><path class="cls-2" d="M12,295.36V451.25a26.52,26.52,0,0,0,26.52,26.52H442a26.53,26.53,0,0,0,26.53-26.52V295.36A26.52,26.52,0,0,0,442,268.84H38.52A26.52,26.52,0,0,0,12,295.36Z"/><path class="cls-2" d="M213,230.93V193.32a16.11,16.11,0,0,1,16.11-16.11h22.43a16.11,16.11,0,0,1,16.11,16.11v74.12"/><line class="cls-2" x1="240.28" y1="104.93" x2="240.28" y2="90.79"/><line class="cls-2" x1="240.28" y1="177.21" x2="240.28" y2="165.77"/><path class="cls-1" d="M275.16,92.43c0,19.26-15.62,45.51-34.88,45.51s-34.89-26.25-34.89-45.51S221,12,240.28,12,275.16,73.17,275.16,92.43Z"/></g></g></g></svg>