<?xml version="1.0" encoding="utf-8"?>
<!-- Generator: Adobe Illustrator 27.3.1, SVG Export Plug-In . SVG Version: 6.00 Build 0)  -->
<svg version="1.1" id="Layer_1" xmlns="http://www.w3.org/2000/svg" xmlns:xlink="http://www.w3.org/1999/xlink" x="0px" y="0px"
	 viewBox="0 0 489.2 687.4" style="enable-background:new 0 0 489.2 687.4;" xml:space="preserve">
<style type="text/css">
	.st0{fill:#FFFFFF;}
	.st1{fill:none;stroke:#474748;stroke-width:24;stroke-linecap:round;stroke-linejoin:round;}
	.st2{fill:none;stroke:#5179B7;stroke-width:16;stroke-linecap:round;stroke-linejoin:round;}
	.st3{fill:none;stroke:#5179B7;stroke-width:17;stroke-linecap:round;stroke-linejoin:round;}
</style>
<rect x="-24" y="-7.7" class="st0" width="534.1" height="715.9"/>
<g id="Layer_2_00000178181519977082560720000014446928669038681483_">
	<g id="Layer_22">
		<g id="realstate">
			<line class="st1" x1="18.9" y1="346.8" x2="470.9" y2="348.1"/>
			<line class="st1" x1="117.7" y1="235.3" x2="199.5" y2="344.1"/>
			<line class="st1" x1="282.7" y1="234.8" x2="364.5" y2="343.6"/>
		</g>
	</g>
</g>
<path class="st1" d="M508.1,391.5"/>
<line class="st1" x1="208.8" y1="517.2" x2="421.2" y2="517.7"/>
<line class="st1" x1="403.4" y1="476.7" x2="421.8" y2="476.8"/>
<line class="st1" x1="209.4" y1="476.2" x2="369.6" y2="476.7"/>
<path class="st1" d="M347.4,440.9"/>
<path class="st1" d="M348.1,440.5"/>
<path class="st1" d="M23.9,217.6l425.5-97.8c6.4-1.5,10.5-8,9-14.4l-18.6-81c-1.5-6.4-8-10.5-14.4-9L0,113.2c-6.4,1.5-10.5,8-9,14.4
	l18.6,81C11,215,17.5,219.1,23.9,217.6z"/>
<line class="st1" x1="108.1" y1="190.1" x2="173.9" y2="75.7"/>
<line class="st1" x1="285.5" y1="148.7" x2="327.2" y2="39.1"/>
<path class="st1" d="M15.2,369.5V230H365c61.8,0,112.3,50.5,112.3,112.3v220.8c0,61.8-50.5,112.3-112.3,112.3H127.5
	c-61.8,0-112.3-50.5-112.3-112.3v-21.6v-27l-0.4-90.7"/>
<polyline class="st2" points="95.8,478.5 95.8,520.9 129.7,503.2 136.9,499.3 143.2,495.9 144.2,495.4 95.9,463.5 95.8,476 
	95.7,484.2 "/>
<circle class="st3" cx="112.8" cy="491.9" r="53.3"/>
</svg>
