<svg xmlns="http://www.w3.org/2000/svg" viewBox="0 0 478.05 489.24"><defs><style>.cls-1,.cls-2{fill:none;stroke-linecap:round;stroke-linejoin:round;stroke-width:24px;}.cls-1{stroke:#474748;}.cls-2{stroke:#557ebf;}</style></defs><title>couple_1</title><g id="Layer_2" data-name="Layer 2"><g id="Layer_22" data-name="Layer 22"><g id="couple"><g id="M"><path class="cls-1" d="M299.18,375.65l27.95,81.22c9.16,26.65,46.84,26.65,56,0l81.27-236.21a29.61,29.61,0,0,0-28-39.25H337.34"/><path class="cls-1" d="M301.92,181.41H273.86a29.64,29.64,0,0,0-29.64,29.83"/><path class="cls-1" d="M315.44,25.41A66.64,66.64,0,1,1,295,50.12"/></g><g id="F"><path class="cls-1" d="M224.8,416.44,232.2,438a29.62,29.62,0,0,1-28,39.26H90.74"/><path class="cls-1" d="M56.21,477.24H41.64a29.63,29.63,0,0,1-28-39.26L48.06,338,80.83,242.7l14.09-40.93c9.16-26.65,46.84-26.65,56,0l4.37,12.71"/><path class="cls-1" d="M168,127.89a66.52,66.52,0,1,1,17.67-26.5"/></g><path class="cls-2" d="M303.13,253.53a49,49,0,0,1,0,69.29l-69.29,69.29-69.29-69.29a49,49,0,0,1,69.29-69.29A49,49,0,0,1,303.13,253.53Z"/></g></g></g></svg>