<svg xmlns="http://www.w3.org/2000/svg" viewBox="0 0 232.45 489.24"><defs><style>.cls-1,.cls-2{fill:none;stroke-linecap:round;stroke-linejoin:round;stroke-width:24px;}.cls-1{stroke:#474748;}.cls-2{stroke:#557ebf;}</style></defs><title>dress_1</title><g id="Layer_2" data-name="Layer 2"><g id="Layer_22" data-name="Layer 22"><g id="dress"><line class="cls-1" x1="116.22" y1="378.29" x2="116.22" y2="477.24"/><path class="cls-1" d="M56.5,477.24V465.5a37.57,37.57,0,0,1,37.57-37.57h44.31A37.57,37.57,0,0,1,176,465.5v11.74"/><line class="cls-2" x1="69.09" y1="152.53" x2="143.98" y2="152.53"/><line class="cls-2" x1="90.57" y1="182.62" x2="164.84" y2="182.62"/><path class="cls-1" d="M182.73,372.77s5-19.72-6.89-61.4"/><line class="cls-1" x1="156.79" y1="58.32" x2="159.83" y2="12"/><path class="cls-1" d="M70.42,378.29H49.23a37.22,37.22,0,0,1-37.15-39.61,388.35,388.35,0,0,1,13-77.2c15.65-57.37,43.44-65.16,44-103S32.7,100.64,46.2,74.22c18.42-36,70,0,70,0h0s51.6-36,70,0c13.5,26.42-23.48,46.52-22.89,84.31s28.37,45.58,44,103a388.35,388.35,0,0,1,13,77.2,37.22,37.22,0,0,1-37.15,39.61H98.79"/><path class="cls-1" d="M49.72,372.77s-5-19.72,6.89-61.4"/><line class="cls-1" x1="75.66" y1="58.32" x2="72.62" y2="12"/></g></g></g></svg>