<?xml version="1.0" encoding="utf-8"?>
<!-- Generator: Adobe Illustrator 27.3.1, SVG Export Plug-In . SVG Version: 6.00 Build 0)  -->
<svg version="1.1" id="Layer_1" xmlns="http://www.w3.org/2000/svg" xmlns:xlink="http://www.w3.org/1999/xlink" x="0px" y="0px"
	 viewBox="0 0 489.2 489.2" style="enable-background:new 0 0 489.2 489.2;" xml:space="preserve">
<style type="text/css">
	.st0{fill:#FFFFFF;}
	.st1{fill:none;stroke:#474748;stroke-width:24;stroke-linecap:round;stroke-linejoin:round;}
	.st2{fill:none;stroke:#474748;stroke-width:24;stroke-miterlimit:10;}
	.st3{fill:none;stroke:#474748;stroke-width:20;stroke-linecap:round;stroke-linejoin:round;stroke-miterlimit:10;}
	.st4{fill:none;stroke:#474748;stroke-width:19;stroke-linecap:round;stroke-linejoin:round;stroke-miterlimit:10;}
	.st5{fill:none;stroke:#557EBF;stroke-width:13;stroke-linecap:round;stroke-linejoin:round;}
	.st6{fill:none;stroke:#474748;stroke-width:12;stroke-linecap:round;stroke-linejoin:round;}
	.st7{fill:#474748;}
	.st8{fill:none;stroke:#474748;stroke-linejoin:round;stroke-miterlimit:10;}
	.st9{fill:#474748;stroke:#474748;stroke-width:7;stroke-miterlimit:10;}
</style>
<rect x="-24" y="-38.4" class="st0" width="534.1" height="548.4"/>
<path class="st1" d="M508.1,193.3"/>
<path class="st1" d="M74.2,223.8"/>
<path class="st1" d="M105.5,257.4l80.7-6.3c0,0,54.8-73.5,120.2,0.3l80.9,3.1l-85.6,27.2L289,293.4l-79-0.3l-16-10.9L105.5,257.4z"
	/>
<path class="st2" d="M86.7,272.8L86.7,272.8c-7,0-12.7-5.7-12.7-12.7v-19.7h25.5V260C99.5,267.1,93.8,272.8,86.7,272.8z"/>
<path class="st2" d="M404.8,269.4L404.8,269.4c-7,0-12.7-5.7-12.7-12.7v-19.7h25.5v19.7C417.6,263.7,411.9,269.4,404.8,269.4z"/>
<path class="st3" d="M207.4,294.8c0,0-20.3,6.3-18.1,60.7"/>
<path class="st4" d="M286.5,295.9c0,0,20.3,6.3,18.1,60.7"/>
<path class="st5" d="M224.6,350.8c-4.5-5.2-7.2-12-7.2-19.4c0-16.5,13.4-29.9,29.9-29.9s29.9,13.4,29.9,29.9
	c0,16.5-13.4,29.9-29.9,29.9c-3.4,0-6.6-0.6-9.6-1.6"/>
<circle class="st6" cx="247.3" cy="331.4" r="13.9"/>
<g>
	<path class="st7" d="M320.3,215.3c17.2-10.3,39.7-11.9,59.1-8.2c6.8,1.4,13.7,3.6,19.8,7.2c-3.1,2.1-6.4,3.5-9.8,4.8
		C368.4,226.8,340,226.5,320.3,215.3L320.3,215.3z"/>
</g>
<g>
	<path class="st7" d="M409.8,214.5c17.2-10.3,39.7-11.9,59.1-8.2c6.8,1.4,13.7,3.6,19.8,7.2c-3.1,2.1-6.4,3.5-9.8,4.8
		C457.8,226.1,429.5,225.7,409.8,214.5L409.8,214.5z"/>
</g>
<path class="st8" d="M399.8,215.7"/>
<path class="st9" d="M404.3,201.7L404.3,201.7c7,0,12.7,5.7,12.7,12.7v0h-25.5v0C391.5,207.4,397.2,201.7,404.3,201.7z"/>
<g>
	<path class="st7" d="M2.8,219.1c17.2-10.3,39.7-11.9,59.1-8.2c6.8,1.4,13.7,3.6,19.8,7.2c-3.1,2.1-6.4,3.5-9.8,4.8
		C50.9,230.6,22.6,230.2,2.8,219.1L2.8,219.1z"/>
</g>
<g>
	<path class="st7" d="M92.3,218.3c17.2-10.3,39.7-11.9,59.1-8.2c6.8,1.4,13.7,3.6,19.8,7.2c-3.1,2.1-6.4,3.5-9.8,4.8
		C140.3,229.8,112,229.5,92.3,218.3L92.3,218.3z"/>
</g>
<path class="st8" d="M82.3,219.5"/>
<path class="st9" d="M86.8,205.4L86.8,205.4c7,0,12.7,5.7,12.7,12.7v0H74v0C74,211.1,79.7,205.4,86.8,205.4z"/>
</svg>
