<?xml version="1.0" encoding="utf-8"?>
<!-- Generator: Adobe Illustrator 27.3.1, SVG Export Plug-In . SVG Version: 6.00 Build 0)  -->
<svg version="1.1" id="Layer_1" xmlns="http://www.w3.org/2000/svg" xmlns:xlink="http://www.w3.org/1999/xlink" x="0px" y="0px"
	 viewBox="0 0 489.2 555.2" style="enable-background:new 0 0 489.2 555.2;" xml:space="preserve">
<style type="text/css">
	.st0{fill:#FFFFFF;}
	.st1{fill:none;stroke:#474748;stroke-width:24;stroke-linecap:round;stroke-linejoin:round;}
	.st2{fill:none;stroke:#4B4C4C;stroke-width:24;stroke-linecap:round;stroke-linejoin:round;}
	.st3{fill:none;stroke:#63A1E5;stroke-width:24;stroke-linecap:round;stroke-linejoin:round;}
	.st4{fill:none;stroke:#6597E0;stroke-width:24;stroke-linecap:round;stroke-linejoin:round;}
	.st5{fill:none;stroke:#474748;stroke-width:13;stroke-linecap:round;stroke-linejoin:round;}
</style>
<rect x="-24" y="-4.1" class="st0" width="534.1" height="580.1"/>
<path class="st1" d="M508.1,259.3"/>
<g id="Layer_2_00000178181519977082560720000014446928669038681483_">
	<g id="Layer_22">
		<g id="realstate">
			<path class="st2" d="M357.8,514"/>
			<path class="st2" d="M185.8,115.6"/>
			<path class="st2" d="M103.5,474.7"/>
			<path class="st2" d="M173.4,118.8"/>
			<path class="st2" d="M406,220.9"/>
			<path class="st2" d="M328.8,118.3"/>
			<path class="st3" d="M279.6,310.5"/>
			<path class="st3" d="M279.4,407.3"/>
			<path class="st3" d="M164.3,349.3c22.7-16.8,54.8-12,71.6,10.7c16.8,22.7,12,54.8-10.7,71.6c-22.7,16.8-54.8,12-71.6-10.7
				c-8.6-11.7-11.8-26.3-9.1-40.3"/>
			<path class="st3" d="M240.9,481.1l-23.2,0.5l-27.8,22.4l-24.2-23.6l-14.4-0.1c-7-0.1-13.3,4.4-15.7,11l-9,25.5
				c-3.5,9.8,1.7,20.5,11.4,23.9c2,0.7,4,1.1,6.1,1.1l63.1,0.6"/>
			<polyline class="st3" points="244.3,481.3 302.2,520.1 358.8,437 			"/>
		</g>
	</g>
</g>
<path class="st3" d="M372.1,479.4"/>
<path class="st3" d="M315.6,322"/>
<polyline class="st4" points="93.3,180.3 91.8,241.4 141.2,217 151.6,211.7 160.9,207 162.3,206.3 94,158.8 93.4,176.7 93,188.5 "/>
<path class="st5" d="M333.6,411"/>
<g id="Layer_2_00000158735699036455726720000014569116521241523880_">
	<g id="Layer_22_00000064314377592228510730000003644881436677652900_">
		<g id="realstate_00000107556201763323921430000011734556385428943503_">
			<path class="st1" d="M290.5,314.3"/>
			<g>
				<path class="st1" d="M325,555.9"/>
			</g>
			<path class="st1" d="M69.6,525.5c-33-17.5-55.6-52.3-55.6-92V142C14,84.7,60.8,37.9,118.1,37.9h256.8
				C432.2,37.9,479,84.7,479,142v291.5c0,46.9-25,111.9-123.8,108.6"/>
		</g>
	</g>
</g>
<line class="st1" x1="201.7" y1="178.3" x2="397.4" y2="178.3"/>
<line class="st1" x1="229.9" y1="235.7" x2="397.3" y2="235.7"/>
<line class="st1" x1="256.3" y1="296.4" x2="394.8" y2="296.4"/>
</svg>
