<?xml version="1.0" encoding="utf-8"?>
<!-- Generator: Adobe Illustrator 27.3.1, SVG Export Plug-In . SVG Version: 6.00 Build 0)  -->
<svg version="1.1" id="Layer_1" xmlns="http://www.w3.org/2000/svg" xmlns:xlink="http://www.w3.org/1999/xlink" x="0px" y="0px"
	 viewBox="0 0 489.2 489.2" style="enable-background:new 0 0 489.2 489.2;" xml:space="preserve">
<style type="text/css">
	.st0{fill:#FFFFFF;}
	.st1{fill:none;stroke:#557EBF;stroke-width:24;stroke-linecap:round;stroke-linejoin:round;}
	.st2{fill:none;stroke:#474748;stroke-width:13;stroke-linecap:round;stroke-linejoin:round;}
	.st3{fill:none;stroke:#474748;stroke-width:24;stroke-linecap:round;stroke-linejoin:round;}
</style>
<rect x="-77.1" y="-52.7" class="st0" width="639.3" height="595.4"/>
<g id="Layer_2_00000178181519977082560720000014446928669038681483_">
	<g id="Layer_22">
		<g id="realstate">
			<path class="st1" d="M347.1,449.5"/>
			<path class="st1" d="M175.9,53"/>
			<path class="st1" d="M94.1,410.4"/>
			<path class="st1" d="M163.6,56.2"/>
			<path class="st1" d="M395,157.8"/>
			<path class="st1" d="M318.3,55.8"/>
			<path class="st1" d="M269.3,247"/>
			<path class="st1" d="M269,343.3"/>
			<path class="st1" d="M154.5,285.6c22.6-16.7,54.5-11.9,71.2,10.7c16.7,22.6,11.9,54.5-10.7,71.2s-54.5,11.9-71.2-10.7
				c-8.6-11.6-11.8-26.2-9-40.1"/>
			<path class="st1" d="M230.8,416.7l-23.1,0.5L180,439.5L155.9,416l-14.3-0.1c-7-0.1-13.3,4.3-15.6,10.9l-9,25.3
				c-3.4,9.7,1.6,20.4,11.4,23.8c1.9,0.7,4,1.1,6.1,1.1l62.7,0.6"/>
			<polyline class="st1" points="234.2,416.9 291.7,455.5 348.1,372.9 			"/>
		</g>
	</g>
</g>
<line class="st1" x1="315.9" y1="242.2" x2="369.4" y2="392.1"/>
<polyline class="st1" points="94,140.6 92.5,201.3 141.6,177.1 152,171.8 161.2,167.2 162.7,166.4 94.7,119.2 94.1,137 93.7,148.7 
	"/>
<path class="st2" d="M331.1,324"/>
<g id="Layer_2_00000158735699036455726720000014569116521241523880_">
	<g id="Layer_22_00000064314377592228510730000003644881436677652900_">
		<g id="realstate_00000107556201763323921430000011734556385428943503_">
			<path class="st3" d="M290.2,268.3"/>
			<g>
				<path class="st3" d="M324.5,491"/>
			</g>
			<path class="st3" d="M70.4,463c-32.8-16.1-55.3-48.1-55.3-84.8V109.6c0-52.8,46.6-95.9,103.6-95.9h255.5
				c57,0,103.6,43.2,103.6,95.9v268.6c0,43.2-24.9,103.1-123.2,100"/>
		</g>
	</g>
</g>
<line class="st3" x1="201.8" y1="138.6" x2="396.6" y2="138.6"/>
<line class="st3" x1="229.9" y1="195.6" x2="396.5" y2="195.6"/>
</svg>
