<?xml version="1.0" encoding="utf-8"?>
<!-- Generator: Adobe Illustrator 27.3.1, SVG Export Plug-In . SVG Version: 6.00 Build 0)  -->
<svg version="1.1" id="Layer_1" xmlns="http://www.w3.org/2000/svg" xmlns:xlink="http://www.w3.org/1999/xlink" x="0px" y="0px"
	 viewBox="0 0 489.2 489.2" style="enable-background:new 0 0 489.2 489.2;" xml:space="preserve">
<style type="text/css">
	.st0{fill:#FFFFFF;}
	.st1{fill:none;stroke:#557EBF;stroke-width:24;stroke-linecap:round;stroke-linejoin:round;}
	.st2{fill:none;stroke:#474748;stroke-width:24;stroke-linecap:round;stroke-linejoin:round;}
</style>
<rect x="-17.8" y="-16.9" class="st0" width="528" height="527"/>
<path class="st1" d="M168.3,189.7l-27.1-74.4c0,0,42.3,12.1,58.1,11.8c15.8-0.2,58.5-11.5,58.5-11.5l-32.6,74.4"/>
<g id="Layer_2_00000072242263507686883240000009246637198631989654_">
	<g id="Layer_22">
		<g id="portrait">
			<path class="st1" d="M401.6,15.5h40.5c20.2,0,36.6,16.4,36.6,36.6v40.5"/>
			<path class="st1" d="M13.5,92.6V52.1c0-20.2,16.4-36.6,36.6-36.6h40.5"/>
			<path class="st1" d="M401.6,480.8h40.5c20.2,0,36.6-16.4,36.6-36.6v-40.5"/>
			<path class="st1" d="M13.5,403.7v40.5c0,20.2,16.4,36.6,36.6,36.6h40.5"/>
		</g>
	</g>
</g>
<g id="M">
	<path class="st2" d="M321.7,425.7"/>
	<path class="st2" d="M145.3,386.6"/>
	<path class="st2" d="M181.7,394.6"/>
	<path class="st2" d="M244,196.1c44.7-19.9,97,0.2,116.9,44.9s-0.2,97-44.9,116.9c-44.7,19.9-97-0.2-116.9-44.9
		c-12.1-27.3-9.7-58.9,6.5-84"/>
</g>
<g id="F">
	<path class="st2" d="M228.8,357.8c-45.2,18.5-96.9-3.2-115.3-48.5s3.2-96.9,48.5-115.3s96.9,3.2,115.3,48.5
		c10.7,26.3,8.1,56.1-6.7,80"/>
</g>
<path class="st2" d="M163.1,406.1"/>
</svg>
