<?xml version="1.0" encoding="utf-8"?>
<!-- Generator: Adobe Illustrator 27.3.1, SVG Export Plug-In . SVG Version: 6.00 Build 0)  -->
<svg version="1.1" id="Layer_1" xmlns="http://www.w3.org/2000/svg" xmlns:xlink="http://www.w3.org/1999/xlink" x="0px" y="0px"
	 viewBox="0 0 489.2 489.2" style="enable-background:new 0 0 489.2 489.2;" xml:space="preserve">
<style type="text/css">
	.st0{fill:#FFFFFF;}
	.st1{fill:none;stroke:#5179B7;stroke-width:24;stroke-linecap:round;stroke-linejoin:round;}
	.st2{fill:none;stroke:#6597E0;stroke-width:24;stroke-linecap:round;stroke-linejoin:round;}
	.st3{fill:none;stroke:#474748;stroke-width:24;stroke-linecap:round;stroke-linejoin:round;}
</style>
<rect x="-24" y="-134.9" class="st0" width="534.1" height="644.9"/>
<path class="st1" d="M144.2,253.8c0,0,1.8,0.3,22.4-0.1"/>
<path class="st1" d="M205.1,254c0,0,3.2,0,23,0"/>
<path class="st1" d="M191,276.8"/>
<path class="st1" d="M144,286c0,0,1.8,0.3,22.4-0.1"/>
<path class="st1" d="M204.9,286.2c0,0,3.2,0,23,0"/>
<path class="st1" d="M144.3,318.3c0,0,1.8,0.3,22.4-0.1"/>
<path class="st1" d="M205.2,318.5c0,0,3.2,0,23,0"/>
<path class="st1" d="M238.4,350.4c0,3.9-2,7.6-5.4,9.6l-4,2.5c-25.6,15.7-60.1,15.7-85.7-0.1l-3.8-2.3c-3.3-2.1-5.4-5.7-5.4-9.6
	V221.5c0-4.3,2.4-8.2,6.3-10.1l0,0c26.8-13.3,59.7-14,87.1-1.7l4.1,1.8c4.1,1.8,6.7,5.9,6.7,10.3V350.4z"/>
<line class="st1" x1="188.7" y1="410.2" x2="188.3" y2="466.6"/>
<line class="st1" x1="148.7" y1="478.1" x2="228.8" y2="478"/>
<path class="st2" d="M281.9,230.4"/>
<g id="Layer_2_00000178181519977082560720000014446928669038681483_">
	<g id="Layer_22_00000029007570396763819120000006953749564008175276_">
		<g id="realstate">
			<path class="st3" d="M77.7,365.2c-37.6-8.9-65.6-42.7-65.6-83V133.8c0-47.1,38.2-85.3,85.3-85.3h178.4
				c47.1,0,85.3,38.2,85.3,85.3v148.4c0,41.9-30.2,76.8-70.1,84"/>
			<line class="st3" x1="16.8" y1="136.5" x2="361.2" y2="137.3"/>
			<line class="st3" x1="87.5" y1="51.1" x2="149.3" y2="133.2"/>
			<line class="st3" x1="212.1" y1="50.7" x2="273.9" y2="132.9"/>
		</g>
	</g>
</g>
<path class="st1" d="M107.3,374.9c0,0,70.8,75.6,157.1,3.2"/>
<path class="st3" d="M399.6,167.4l76.1-33.6c0,0-16.8,83.4-16.6,90.2c0.2,6.8,17.4,81.5,17.4,81.5l-108.2-35.2"/>
</svg>
