<?xml version="1.0" encoding="utf-8"?>
<!-- Generator: Adobe Illustrator 27.3.1, SVG Export Plug-In . SVG Version: 6.00 Build 0)  -->
<svg version="1.1" id="Layer_1" xmlns="http://www.w3.org/2000/svg" xmlns:xlink="http://www.w3.org/1999/xlink" x="0px" y="0px"
	 viewBox="0 0 489.2 489.2" style="enable-background:new 0 0 489.2 489.2;" xml:space="preserve">
<style type="text/css">
	.st0{fill:#FFFFFF;}
	.st1{fill:none;stroke:#5179B7;stroke-width:24;stroke-linecap:round;stroke-linejoin:round;}
	.st2{fill:none;stroke:#474748;stroke-width:24;stroke-linecap:round;stroke-linejoin:round;}
	.st3{fill:none;stroke:#6597E0;stroke-width:24;stroke-linecap:round;stroke-linejoin:round;}
</style>
<rect x="-24" y="-31.5" class="st0" width="534.1" height="541.5"/>
<path class="st1" d="M348.2,222.1l39.8-19.9c16.9-8.4,18.1-32.1,2.1-42.3l-22.8-14.5L263.8,80l-87.2-55.2l-12.8-8.1
	c-16.1-10.2-37,1.2-37.3,20.2l-3.4,257.8c-0.1,8,3.6,14.8,9.1,19.2"/>
<path class="st2" d="M298.2,323.3c0,4.8-2.5,9.3-6.6,11.8l-4.9,3c-31.3,19.2-73.4,19.2-104.6-0.2l-4.6-2.8c-4.1-2.5-6.5-7-6.5-11.7
	V166c0-5.2,3-10,7.7-12.4l0,0c32.7-16.3,72.8-17.1,106.4-2.1l5,2.2c5,2.2,8.2,7.2,8.2,12.6V323.3z"/>
<path class="st2" d="M282.2,387.4c-40.6,14.8-86.8,9-123.1-17.2l-16.5-11.9"/>
<polyline class="st2" points="331.3,358.2 319.6,366.6 314.2,370.5 "/>
<line class="st2" x1="237.5" y1="396.3" x2="237" y2="465.1"/>
<line class="st2" x1="188.6" y1="479.1" x2="286.5" y2="479"/>
<path class="st2" d="M173.5,205.1c0,0,13.1,0.6,38.2,0.2"/>
<path class="st2" d="M257.4,205.7c0,0,15-0.1,39.3-0.1"/>
<path class="st2" d="M172.8,242.7c0,0,13.1,0.6,38.2,0.2"/>
<path class="st2" d="M257.8,242.3c0,0,15-0.1,39.3-0.1"/>
<path class="st2" d="M173.6,279.5c0,0,13.1,0.6,38.2,0.2"/>
<path class="st2" d="M257.5,280.3c0,0,15-0.1,39.3-0.1"/>
<path class="st3" d="M241.5,281"/>
<path class="st3" d="M352.4,217.4"/>
</svg>
