<svg xmlns="http://www.w3.org/2000/svg" viewBox="0 0 478.05 489.24"><defs><style>.cls-1,.cls-2{fill:none;stroke-linecap:round;stroke-linejoin:round;stroke-width:24px;}.cls-1{stroke:#474748;}.cls-2{stroke:#557ebf;}</style></defs><title>family_1</title><g id="Layer_2" data-name="Layer 2"><g id="Layer_22" data-name="Layer 22"><g id="family"><g id="M"><path class="cls-1" d="M291.5,353.34l35.63,103.53c9.16,26.65,46.84,26.65,56,0l81.27-236.21a29.61,29.61,0,0,0-28-39.25H335.06"/><path class="cls-1" d="M301.92,181.41H273.86a29.64,29.64,0,0,0-29.64,29.45"/><path class="cls-1" d="M315.44,25.41a66.64,66.64,0,1,1-20.28,24.38"/></g><g id="F"><line class="cls-1" x1="165.93" y1="477.24" x2="81.33" y2="477.24"/><path class="cls-1" d="M45.38,477.24H41.64a29.63,29.63,0,0,1-28-39.26L48.06,338,80.83,242.7l14.09-40.93c9.16-26.65,46.84-26.65,56,0L165,242.69l29.88,86.82"/><path class="cls-1" d="M168,127.89a66.51,66.51,0,1,1,17.38-25.71"/></g><g id="F-2" data-name="F"><path class="cls-2" d="M251.24,477l-44.67.22a13.75,13.75,0,0,1-13.09-18.16l15.74-46.5,15-44.28,6.44-19c4.2-12.38,21.68-12.47,26-.12l6.63,19,15.42,44.13,16.2,46.34A13.75,13.75,0,0,1,282,476.87"/><path class="cls-2" d="M233.63,308.51a31,31,0,1,0-21.21-29.24,31.49,31.49,0,0,0,.49,5.35"/></g></g></g></g></svg>