<?xml version="1.0" encoding="utf-8"?>
<!-- Generator: Adobe Illustrator 27.3.1, SVG Export Plug-In . SVG Version: 6.00 Build 0)  -->
<svg version="1.1" id="Layer_1" xmlns="http://www.w3.org/2000/svg" xmlns:xlink="http://www.w3.org/1999/xlink" x="0px" y="0px"
	 viewBox="0 0 489.2 489.2" style="enable-background:new 0 0 489.2 489.2;" xml:space="preserve">
<style type="text/css">
	.st0{fill:#FFFFFF;}
	.st1{fill:none;stroke:#474748;stroke-width:24;stroke-linecap:round;stroke-linejoin:round;}
	.st2{fill:none;stroke:#5179B7;stroke-width:19;stroke-miterlimit:10;}
	.st3{fill:none;stroke:#474747;stroke-width:24;stroke-linecap:round;stroke-linejoin:round;stroke-miterlimit:10;}
</style>
<rect x="-24" y="-38.4" class="st0" width="534.1" height="548.4"/>
<path class="st1" d="M508.1,193.3"/>
<g id="M">
	<path class="st1" d="M467.8,386.4"/>
	<path class="st1" d="M358.9,386.4"/>
	<path class="st1" d="M381.4,386.4"/>
	<path class="st1" d="M392.2,261.5c23.7-17.5,57.1-12.5,74.6,11.2s12.5,57.1-11.2,74.6c-23.7,17.5-57.1,12.5-74.6-11.2
		c-10.7-14.5-13.4-33.4-7.1-50.2"/>
</g>
<g id="F">
	<path class="st1" d="M321.1,343.5c-21.7,19.9-55.4,18.4-75.3-3.3s-18.4-55.4,3.3-75.3s55.4-18.4,75.3,3.3
		c12.4,13.6,17,32.6,12,50.4"/>
</g>
<path class="st1" d="M316.8,429.7l6.5,0.1c8.3,0.1,14.9-7.1,13.9-15.6c-0.1-1-0.4-1.9-0.7-2.9l-6.3-18.9c-0.1-0.2-0.1-0.4-0.2-0.6
	c-2.4-6.1-9.9-8.5-15.6-5.3l-22.9,12.9c-4.8,2.7-10.7,2.5-15.3-0.4l-19.5-12.6c-5.6-3.6-13.2-1.4-15.8,4.7c-0.1,0.2-0.2,0.4-0.2,0.6
	l-6.7,18.9c-2.6,7.2,1.2,15.2,8.5,17.7c1.5,0.5,3,0.8,4.5,0.8l41.5,0.3"/>
<path class="st1" d="M453.7,429.2l7,0.1c7.7,0.1,13.9-6.1,14-13.8c0-1.5-0.2-3.1-0.7-4.5l-6.4-19c-1.7-4.9-6.3-8.3-11.5-8.3
	l-20.5-0.2l-14.5,17.2l-14.7-17.4l-16.8-0.1c-5.2,0-9.9,3.2-11.6,8.2l-6.7,18.9c-2.6,7.2,1.2,15.2,8.5,17.7c1.5,0.5,3,0.8,4.5,0.8
	l41.2,0.3"/>
<path class="st2" d="M380.5,217.9c0,3.6-1.4,7.1-4.1,9.8l-20.1,20.1c-2.3,2.3-5.9,2.3-8.2,0L328,227.7c-5.4-5.4-5.4-14.3,0-19.7
	c2.7-2.7,6.3-4.1,9.8-4.1c3.6,0,7.1,1.4,9.8,4.1l4.6,4.6l4.3-4.3c5.5-5.5,14.4-5.7,19.9-0.3C379.2,210.7,380.5,214.3,380.5,217.9z"
	/>
<path class="st3" d="M119.7,196.6c0,0,17.1,109.1-14.7,207.7l-17.1,39.4l122.3,1.3c0,0-45.2-59.2-29.3-241.9c0,0,46.5,42.1,81.9-5.3
	c0,0,50.1,13.1,52.6-26.3c0,0,28.1-34.2-1.2-67.1c0,0,3.7-51.3-41.6-47.3c0,0-34.2-32.9-69.7-1.3c0,0-34.2-42.1-70.9-3.9
	c0,0-30.6-44.7-68.5,1.3c0,0-37.9-1.3-35.5,51.9c0,0-28.7,17.8-5.5,48.6c0,0-1.2,45.4,47.1,30.9C69.5,184.7,91.6,225.5,119.7,196.6z
	"/>
</svg>
