<?xml version="1.0" encoding="utf-8"?>
<!-- Generator: Adobe Illustrator 27.3.1, SVG Export Plug-In . SVG Version: 6.00 Build 0)  -->
<svg version="1.1" id="Layer_1" xmlns="http://www.w3.org/2000/svg" xmlns:xlink="http://www.w3.org/1999/xlink" x="0px" y="0px"
	 viewBox="0 0 489.2 489.2" style="enable-background:new 0 0 489.2 489.2;" xml:space="preserve">
<style type="text/css">
	.st0{fill:#FFFFFF;}
	.st1{fill:none;stroke:#557EBF;stroke-width:24;stroke-linecap:round;stroke-linejoin:round;}
	.st2{fill:none;stroke:#474748;stroke-width:24;stroke-linecap:round;stroke-linejoin:round;}
	.st3{fill:#F969DB;stroke:#F969DB;stroke-width:24;stroke-linecap:round;stroke-linejoin:round;}
</style>
<rect x="-17.8" y="-16.9" class="st0" width="528" height="527"/>
<g id="Layer_2_00000072242263507686883240000009246637198631989654_">
	<g id="Layer_22">
		<g id="portrait">
			<path class="st1" d="M400.6,14h40.5c20.2,0,36.6,16.4,36.6,36.6v40.5"/>
			<path class="st1" d="M12.5,91.1V50.6C12.5,30.4,28.9,14,49.1,14h40.5"/>
			<path class="st1" d="M400.6,479.2h40.5c20.2,0,36.6-16.4,36.6-36.6v-40.5"/>
			<path class="st1" d="M12.5,402.1v40.5c0,20.2,16.4,36.6,36.6,36.6h40.5"/>
		</g>
	</g>
</g>
<g id="M">
	<path class="st2" d="M382.5,327.4"/>
	<path class="st2" d="M246.7,327.4"/>
	<path class="st2" d="M274.7,327.4"/>
	<path class="st2" d="M288.2,171.7c29.5-21.8,71.2-15.6,93,13.9s15.6,71.2-13.9,93s-71.2,15.6-93-13.9c-13.3-18-16.7-41.6-8.9-62.6"
		/>
</g>
<g id="F">
	<path class="st2" d="M198,274c-27.1,24.8-69.1,22.9-93.9-4.2s-22.9-69.1,4.2-93.9s69.1-22.9,93.9,4.2c15.5,16.9,21.2,40.7,15,62.8"
		/>
</g>
<polyline class="st3" points="159.9,125.5 176.4,135 176.4,103.7 149.2,119.3 122.1,135 122.1,103.7 139.1,113.5 "/>
<path class="st2" d="M192.7,381.5l8.1,0.1c9.6,0.1,17.4-7.6,17.5-17.2c0-1.9-0.3-3.8-0.9-5.6l-7.9-23.7c-2.1-6.2-7.8-10.3-14.3-10.4
	l-82.8-0.7c-6.5,0-12.3,4-14.5,10.2l-8.3,23.5c-3.2,9,1.5,18.9,10.6,22.1c1.8,0.6,3.7,1,5.6,1l51.8,0.4"/>
<path class="st2" d="M364.9,380.9l8.8,0.1c9.6,0.1,17.4-7.6,17.5-17.2c0-1.9-0.3-3.8-0.9-5.6l-7.9-23.7c-2.1-6.2-7.8-10.3-14.3-10.4
	l-82.8-0.7c-6.5,0-12.3,4-14.5,10.2l-8.3,23.5c-3.2,9,1.5,18.9,10.6,22.1c1.8,0.6,3.7,1,5.6,1l51.4,0.4"/>
<polyline class="st1" points="337.4,336.3 353.9,345.8 353.9,314.4 326.7,330.1 299.5,345.8 299.5,314.4 316.6,324.2 "/>
<path class="st2" d="M162,404.6"/>
</svg>
