<svg xmlns="http://www.w3.org/2000/svg" viewBox="0 0 489.24 489.24"><defs><style>.cls-1,.cls-2{fill:none;stroke-linecap:round;stroke-linejoin:round;stroke-width:24px;}.cls-1{stroke:#474748;}.cls-2{stroke:#557ebf;}</style></defs><title>indust_1</title><g id="Layer_2" data-name="Layer 2"><g id="Layer_22" data-name="Layer 22"><g id="indust"><path class="cls-1" d="M366,178.07V200a16.21,16.21,0,0,1-13,15.85l-35.63,7.12a7.53,7.53,0,0,0-5.68,5.1,129.72,129.72,0,0,1-6.6,16.64s0,0-.07,0h0a.1.1,0,0,1,0-.1,129.72,129.72,0,0,0,7.86-20.86.06.06,0,0,1,.05-.06l40.11-8A16,16,0,0,0,365.87,200V178.07A16,16,0,0,0,353,162.38l-40.11-8s-.05,0-.05-.06A128.47,128.47,0,0,0,301.11,126s0,0,0-.07l22.69-34a16,16,0,0,0-2-20.2L306.33,56.22a16,16,0,0,0-20.2-2l-34,22.69H252a128.47,128.47,0,0,0-28.29-11.73.06.06,0,0,1-.06-.05l-8-40.11A16,16,0,0,0,200,12.15H178.07A16,16,0,0,0,162.38,25l-8,40.11s0,.05-.06.05A128.27,128.27,0,0,0,126,76.91h-.08l-34-22.69a16,16,0,0,0-20.2,2L56.22,71.69a16.06,16.06,0,0,0-2,20.2l22.69,34a.06.06,0,0,1,0,.08,128.47,128.47,0,0,0-11.73,28.29s0,.05-.05.06l-40.11,8a16,16,0,0,0-12.87,15.69v21.88A16,16,0,0,0,25,215.64l40.11,8a.06.06,0,0,1,.05.06A128.47,128.47,0,0,0,76.91,252a.06.06,0,0,1,0,.08l-22.69,34a16,16,0,0,0,2,20.2l15.47,15.46a16.06,16.06,0,0,0,20.2,2l34-22.69H126a128,128,0,0,0,28.29,11.73s.06,0,.06.05l8,40.11a16,16,0,0,0,15.69,12.87H200A16,16,0,0,0,215.64,353l8-40.11a.1.1,0,0,1,.06-.05,127.81,127.81,0,0,0,20.4-7.63.08.08,0,0,1,.08.05.08.08,0,0,1,0,.1A128.32,128.32,0,0,1,228,311.71a7.5,7.5,0,0,0-5.09,5.69L215.8,353A16.22,16.22,0,0,1,200,366H178.07a16.21,16.21,0,0,1-15.85-13L155.1,317.4a7.53,7.53,0,0,0-5.1-5.69,127.75,127.75,0,0,1-20.17-8.36,7.49,7.49,0,0,0-7.62.43L92,323.93a16.27,16.27,0,0,1-20.4-2L56.1,306.44a16.21,16.21,0,0,1-2-20.39l20.15-30.24a7.52,7.52,0,0,0,.43-7.62A127.75,127.75,0,0,1,66.31,228a7.5,7.5,0,0,0-5.69-5.09L25,215.8A16.21,16.21,0,0,1,12,200V178.07a16.21,16.21,0,0,1,13-15.85l35.63-7.13A7.5,7.5,0,0,0,66.31,150a127.75,127.75,0,0,1,8.36-20.17,7.52,7.52,0,0,0-.43-7.62L54.09,92a16.21,16.21,0,0,1,2-20.39L71.58,56.1a16.22,16.22,0,0,1,20.39-2l30.24,20.15a7.49,7.49,0,0,0,7.62.43A127.91,127.91,0,0,1,150,66.31a7.52,7.52,0,0,0,5.09-5.69L162.22,25a16.21,16.21,0,0,1,15.85-13H200a16.19,16.19,0,0,1,15.84,13l7.13,35.63A7.52,7.52,0,0,0,228,66.3a127.8,127.8,0,0,1,20.17,8.37,7.54,7.54,0,0,0,7.61-.43L286,54.09a16.23,16.23,0,0,1,20.4,2l15.47,15.48a16.2,16.2,0,0,1,2,20.39l-20.15,30.24a7.52,7.52,0,0,0-.43,7.62A127.91,127.91,0,0,1,311.71,150a7.52,7.52,0,0,0,5.69,5.09L353,162.22A16.22,16.22,0,0,1,366,178.07Z"/><path class="cls-2" d="M266.74,189a78,78,0,0,1-8.52,35.42.07.07,0,0,1-.07,0h0a.09.09,0,0,1,0-.11,76.8,76.8,0,0,0,8.5-35.35,77.57,77.57,0,0,0-131.72-55.55s0,0-.05,0-.05,0-.06,0a.08.08,0,0,1,0-.11,77.73,77.73,0,0,1,132,55.66Z"/><path class="cls-2" d="M234.55,252a77.76,77.76,0,0,1-119.06-88.3.08.08,0,0,1,.07-.06h0a.08.08,0,0,1,0,.09A77.61,77.61,0,0,0,234.5,251.87a.08.08,0,0,1,.07,0A.07.07,0,0,1,234.55,252Z"/><path class="cls-2" d="M282,330.12c.91-2.34,1.93-4.63,3-6.87a7.53,7.53,0,0,0-.48-7.51l-12.4-18.61a10.67,10.67,0,0,1,1.33-13.44l10.16-10.16a10.68,10.68,0,0,1,13.44-1.33l18.61,12.4a7.47,7.47,0,0,0,7.51.48,83.24,83.24,0,0,1,10.65-4.42,7.49,7.49,0,0,0,5-5.63l4.38-21.93a10.7,10.7,0,0,1,10.44-8.57h14.38a10.67,10.67,0,0,1,10.44,8.57L382.9,275a7.49,7.49,0,0,0,5,5.63,84.59,84.59,0,0,1,10.66,4.42,7.43,7.43,0,0,0,7.49-.48l18.61-12.4a10.68,10.68,0,0,1,13.44,1.33l10.17,10.17a10.66,10.66,0,0,1,1.33,13.43l-12.4,18.61a7.51,7.51,0,0,0-.48,7.51,83.19,83.19,0,0,1,4.41,10.65,7.53,7.53,0,0,0,5.64,5l21.93,4.38a10.7,10.7,0,0,1,8.57,10.44v14.38a10.67,10.67,0,0,1-8.57,10.44l-21.93,4.39a7.53,7.53,0,0,0-5.64,5,82.35,82.35,0,0,1-4.41,10.65,7.49,7.49,0,0,0,.48,7.5l12.4,18.61a10.67,10.67,0,0,1-1.33,13.44l-10.17,10.17a10.68,10.68,0,0,1-13.44,1.33L406,437.17a7.47,7.47,0,0,0-4.16-1.26,7.38,7.38,0,0,0-3.34.78,84.53,84.53,0,0,1-10.66,4.41,7.53,7.53,0,0,0-5,5.64l-4.39,21.93a10.66,10.66,0,0,1-10.44,8.57H353.69a10.7,10.7,0,0,1-10.44-8.57l-4.38-21.93a7.53,7.53,0,0,0-5-5.64,82.22,82.22,0,0,1-10.64-4.41,7.54,7.54,0,0,0-7.51.48l-18.61,12.4a10.68,10.68,0,0,1-13.44-1.33l-10.16-10.17a10.69,10.69,0,0,1-1.34-13.44L284.6,406a7.5,7.5,0,0,0,.48-7.49,84.59,84.59,0,0,1-4.42-10.66,7.49,7.49,0,0,0-5.63-5l-21.93-4.39a10.67,10.67,0,0,1-8.57-10.44V353.69a10.7,10.7,0,0,1,8.57-10.44l1.63-.32s.06,0,.07.06a.09.09,0,0,1-.06.1l-1.61.32a10.52,10.52,0,0,0-8.44,10.28v14.38a10.52,10.52,0,0,0,8.44,10.29l26.35,5.27a.09.09,0,0,1,.07.06,83.85,83.85,0,0,0,7.7,18.58.1.1,0,0,1,0,.09l-14.91,22.37A10.52,10.52,0,0,0,273.64,438l10.17,10.16a10.47,10.47,0,0,0,13.24,1.31l22.36-14.9h.09a83.85,83.85,0,0,0,18.58,7.7.08.08,0,0,1,.05.07l5.28,26.35a10.51,10.51,0,0,0,10.28,8.44h14.38a10.51,10.51,0,0,0,10.29-8.44l5.27-26.35a.06.06,0,0,1,.05-.06,84.89,84.89,0,0,0,18.59-7.7h.09l22.37,14.91A10.49,10.49,0,0,0,438,448.13L448.13,438a10.51,10.51,0,0,0,1.3-13.23l-14.9-22.37a.1.1,0,0,1,0-.09,83.85,83.85,0,0,0,7.7-18.58.11.11,0,0,1,.07-.06l26.35-5.27a10.52,10.52,0,0,0,8.44-10.29V353.69a10.52,10.52,0,0,0-8.44-10.28l-26.35-5.28a.08.08,0,0,1-.07,0,83.93,83.93,0,0,0-7.7-18.59.1.1,0,0,1,0-.09L449.44,297a10.5,10.5,0,0,0-1.31-13.22L438,273.65a10.49,10.49,0,0,0-13.24-1.32l-22.36,14.92h-.09a83.85,83.85,0,0,0-18.58-7.7.07.07,0,0,1-.06-.07l-5.27-26.35a10.52,10.52,0,0,0-10.29-8.44H353.69a10.52,10.52,0,0,0-10.28,8.44l-5.28,26.35a.08.08,0,0,1,0,.07,83.93,83.93,0,0,0-18.59,7.7h-.09L297,272.33a10.49,10.49,0,0,0-13.23,1.31l-10.16,10.17a10.52,10.52,0,0,0-1.32,13.24l14.91,22.36a.1.1,0,0,1,0,.09,83.85,83.85,0,0,0-7.7,18.58.1.1,0,0,1-.09.05h0a.08.08,0,0,1-.06-.09,82.66,82.66,0,0,1,2.65-7.92"/><path class="cls-1" d="M395.85,360.89a.08.08,0,0,1-.09.07.08.08,0,0,1-.07-.07,34.78,34.78,0,1,0-13.51,27.54c.05,0,.07,0,.08,0a.09.09,0,0,1,0,.11,35,35,0,1,1,13.61-27.68Z"/><path class="cls-1" d="M189,150.31a38.7,38.7,0,1,0,38.7,38.7A38.76,38.76,0,0,0,189,150.31Zm0,77.24A38.54,38.54,0,1,1,227.55,189,38.58,38.58,0,0,1,189,227.55Z"/></g></g></g></svg>