<?xml version="1.0" encoding="utf-8"?>
<!-- Generator: Adobe Illustrator 27.3.1, SVG Export Plug-In . SVG Version: 6.00 Build 0)  -->
<svg version="1.1" id="Layer_1" xmlns="http://www.w3.org/2000/svg" xmlns:xlink="http://www.w3.org/1999/xlink" x="0px" y="0px"
	 viewBox="0 0 489.2 489.2" style="enable-background:new 0 0 489.2 489.2;" xml:space="preserve">
<style type="text/css">
	.st0{fill:#FFFFFF;}
	.st1{fill:none;stroke:#474748;stroke-width:24;stroke-linecap:round;stroke-linejoin:round;}
	.st2{fill:none;stroke:#557EBF;stroke-width:24;stroke-linecap:round;stroke-linejoin:round;stroke-miterlimit:10;}
	.st3{fill:none;stroke:#557EBF;stroke-width:24;stroke-linecap:round;stroke-miterlimit:10;}
	.st4{fill:none;stroke:#6597E0;stroke-width:24;stroke-linecap:round;stroke-miterlimit:10;}
	.st5{fill:none;stroke:#6597E0;stroke-width:24;stroke-linecap:round;stroke-linejoin:round;stroke-miterlimit:10;}
</style>
<rect x="-24" y="-38.4" class="st0" width="534.1" height="548.4"/>
<path class="st1" d="M508.1,193.3"/>
<path class="st1" d="M166.3,422.2L42,315.1C8,285.8,5.3,232.9,35.8,197.4L169.3,42.5C199.9,7,252.6,1.9,286.6,31.2l162.7,140.2
	c33.9,29.2,36.7,82.2,6.2,117.7L420,331.2"/>
<path class="st1" d="M74.2,223.8"/>
<path class="st2" d="M310.6,295.9c0,0,94.7,14.8,76.1,123.6c0,0-2.5-43.2-35.2-54.7c0,0-71.3-19.5-51.9,68.9c0,0-39.3-3.6-33.7,44.6
	c0,0,105.5,1.4,118-0.2c58.2-7.1,23.3-107.1,62.2-126c15.8-7.7,25.5,12.2,25.5,12.2"/>
<path class="st3" d="M228.8,478.7l-55,0.2c0,0-10.3-25.2,28.3-37.4c0,0,23.5-16.7,23.5-132.4"/>
<path class="st4" d="M315.9,300.3"/>
<path class="st1" d="M163.7,424.3"/>
<path class="st2" d="M307.7,295.1c-5.2-8.1-9.1-18.3-8.6-30.5c0,0,63.2-6.7,72.6-56.5l4.7-24.2l-41.5-1
	c-17.1-0.4-31.9-12.6-34.9-29.5c-0.1-0.6-0.2-1.2-0.3-1.8c0,0-105.4-31.1-123.6,70.4c0,0-16.2,63.3,41.6,73.4
	c0,0,44.4-1.3,30.2-51.1c0,0-6.9-25.6-16.9-43"/>
<path class="st5" d="M303.7,290.1"/>
<circle class="st1" cx="99" cy="253.8" r="19.1"/>
</svg>
