<svg xmlns="http://www.w3.org/2000/svg" viewBox="0 0 489.24 489.24"><defs><style>.cls-1,.cls-2{fill:none;stroke-linecap:round;stroke-linejoin:round;stroke-width:24px;}.cls-1{stroke:#474748;}.cls-2{stroke:#557ebf;}</style></defs><title>portrait_1</title><g id="Layer_2" data-name="Layer 2"><g id="Layer_22" data-name="Layer 22"><g id="portrait"><g id="M"><path class="cls-1" d="M194,278.8H167.32a28.16,28.16,0,0,0-26.63,37.33l13.21,38.39a24.77,24.77,0,0,0,23.42,16.71h134.6a24.77,24.77,0,0,0,23.42-16.71l13.21-38.39a28.17,28.17,0,0,0-26.64-37.33H227.2"/><path class="cls-1" d="M215.23,125.2a63.43,63.43,0,1,1-26.65,26.47"/></g><path class="cls-2" d="M400.12,12h40.53a36.59,36.59,0,0,1,36.59,36.58V89.11"/><path class="cls-2" d="M12,89.11V48.58A36.58,36.58,0,0,1,48.58,12H89.11"/><path class="cls-2" d="M400.12,477.24h40.53a36.59,36.59,0,0,0,36.59-36.59V400.12"/><path class="cls-2" d="M12,400.12v40.53a36.59,36.59,0,0,0,36.58,36.59H89.11"/></g></g></g></svg>