<svg xmlns="http://www.w3.org/2000/svg" viewBox="0 0 497.45 489.24"><defs><style>.cls-1,.cls-2{fill:none;stroke-linecap:round;stroke-linejoin:round;stroke-width:24px;}.cls-1{stroke:#474748;}.cls-2{stroke:#557ebf;}</style></defs><title>product_1</title><g id="Layer_2" data-name="Layer 2"><g id="Layer_22" data-name="Layer 22"><g id="product"><path class="cls-1" d="M184.65,320.11,119.38,238c-2-2.5-7.31-8.9-7.31-8.9s8.18-5.74,11.09-7.08a34.3,34.3,0,0,0,19.82-31,33.91,33.91,0,0,0-13.51-27.16c-2.32-1.76-10.57-7.31-10.57-7.31s7.16-5.79,9.09-8a25.54,25.54,0,0,0,6.5-17,25.84,25.84,0,0,0-18.1-24.5,10.47,10.47,0,0,1-7.38-10V90.07A16.92,16.92,0,0,1,120.15,74.2a32.13,32.13,0,0,0-9-62.12c-.79-.05-1.57-.08-2.35-.08a31.52,31.52,0,0,0-21.85,8.64,32.24,32.24,0,0,0-10.2,23.49.16.16,0,0,0,.15.16.16.16,0,0,0,.16-.16,31.79,31.79,0,0,1,31.82-31.8c.74,0,1.49,0,2.22.07a31.81,31.81,0,0,1,9,61.5A17.46,17.46,0,0,0,108.7,90.07v7.08a10.49,10.49,0,0,1-7.38,10,25.82,25.82,0,0,0-18.1,24.49,25.56,25.56,0,0,0,6.49,17c1.94,2.16,8.69,8,8.69,8s-7.84,5.55-10.17,7.31a33.91,33.91,0,0,0-13.5,27.16,34.3,34.3,0,0,0,19.82,31c2.9,1.34,11.31,7.08,11.31,7.08s-5.54,6.4-7.53,8.9L33.06,320.11A96.85,96.85,0,0,0,136.2,473.3a.15.15,0,0,0,.1-.19.16.16,0,0,0-.15-.12,97.14,97.14,0,0,1-27.27,3.92A96.53,96.53,0,0,1,33.3,320.31l67.37-84.72a10.47,10.47,0,0,1,16.37,0l67.36,84.72a96.62,96.62,0,0,1,17,87.32.19.19,0,0,0,0,.12c0,.06.06.07.1.08h0a.14.14,0,0,0,.16-.11A97,97,0,0,0,184.65,320.11ZM83.54,131.64A25.32,25.32,0,1,1,108.85,157,25.35,25.35,0,0,1,83.54,131.64Zm25.31,93.25a33.81,33.81,0,1,1,33.81-33.81A33.85,33.85,0,0,1,108.85,224.89Z"/><path class="cls-2" d="M148.1,349.17,109,300a.14.14,0,0,0-.13-.07.13.13,0,0,0-.12.07L69.61,349.17a50.14,50.14,0,1,0,78.49,0Zm-4,66.44a49.82,49.82,0,0,1-74.22-66.23l30.81-38.75c2-2.49,8.18-10.29,8.18-10.29s6.2,7.8,8.19,10.29l30.81,38.75A49.8,49.8,0,0,1,144.08,415.61Z"/><path class="cls-2" d="M177.37,448.75a.29.29,0,0,1,0,.1.38.38,0,0,1-.13.06s-.08,0-.11-.05a.34.34,0,0,1,0-.11.15.15,0,0,1,.16-.16l.12,0A.28.28,0,0,1,177.37,448.75Z"/><path class="cls-1" d="M464.43,320.11,399.16,238c-2-2.5-7.32-8.9-7.32-8.9s8.19-5.74,11.1-7.08a34.31,34.31,0,0,0,19.81-31,33.89,33.89,0,0,0-13.51-27.16c-2.31-1.76-10.57-7.31-10.57-7.31s7.16-5.79,9.1-8a25.53,25.53,0,0,0,6.49-17,25.84,25.84,0,0,0-18.1-24.5,10.46,10.46,0,0,1-7.37-10V90.07A16.91,16.91,0,0,1,399.92,74.2a32.13,32.13,0,0,0-9-62.12c-.78-.05-1.57-.08-2.35-.08a31.54,31.54,0,0,0-21.85,8.64,32.24,32.24,0,0,0-10.2,23.49.16.16,0,0,0,.16.16.17.17,0,0,0,.16-.16,31.77,31.77,0,0,1,31.81-31.8c.74,0,1.5,0,2.23.07a31.81,31.81,0,0,1,8.95,61.5,17.45,17.45,0,0,0-11.35,16.17v7.08a10.48,10.48,0,0,1-7.38,10,25.61,25.61,0,0,0-11.61,41.51c1.94,2.16,8.7,8,8.7,8s-7.85,5.55-10.17,7.31a33.91,33.91,0,0,0-13.51,27.16,34.3,34.3,0,0,0,19.82,31c2.91,1.34,11.31,7.08,11.31,7.08s-5.54,6.4-7.53,8.9l-65.27,82.08A96.85,96.85,0,0,0,416,473.3a.15.15,0,0,0,.11-.19.16.16,0,0,0-.15-.12,97.27,97.27,0,0,1-27.28,3.92,96.53,96.53,0,0,1-75.57-156.6l67.37-84.72a10.46,10.46,0,0,1,16.36,0l67.36,84.72a96.65,96.65,0,0,1,17.06,87.32.19.19,0,0,0,0,.12c0,.06.05.07.09.08h0a.15.15,0,0,0,.16-.11A97,97,0,0,0,464.43,320.11ZM363.31,131.64A25.32,25.32,0,1,1,388.63,157,25.35,25.35,0,0,1,363.31,131.64Zm25.32,93.25a33.81,33.81,0,1,1,33.81-33.81A33.85,33.85,0,0,1,388.63,224.89Z"/><path class="cls-2" d="M427.87,349.17,388.76,300a.16.16,0,0,0-.13-.07.15.15,0,0,0-.13.07l-39.11,49.18a50.14,50.14,0,1,0,78.48,0Zm-4,66.44a49.82,49.82,0,0,1-74.23-66.23l30.82-38.75,8.18-10.29,8.18,10.29,30.82,38.75A49.81,49.81,0,0,1,423.86,415.61Z"/><path class="cls-2" d="M457.14,448.75a.29.29,0,0,1,0,.1.31.31,0,0,1-.13.06s-.08,0-.1-.05a.34.34,0,0,1-.05-.11.29.29,0,0,1,0-.1.23.23,0,0,1,.12-.06.5.5,0,0,1,.12,0A.28.28,0,0,1,457.14,448.75Z"/></g></g></g></svg>