<?xml version="1.0" encoding="UTF-8"?>
<svg id="Layer_1" data-name="Layer 1" xmlns="http://www.w3.org/2000/svg" viewBox="0 0 670.98 421.79">
  <defs>
    <style>
      .cls-1 {
        fill: #fff;
      }

      .cls-2 {
        stroke: #6597e0;
      }

      .cls-2, .cls-3 {
        fill: none;
        stroke-linecap: round;
        stroke-linejoin: round;
        stroke-width: 24px;
      }

      .cls-3 {
        stroke: #474748;
      }
    </style>
  </defs>
  <g id="Layer_2" data-name="Layer 2">
    <rect class="cls-1" width="670.98" height="421.79"/>
    <g id="Layer_22" data-name="Layer 22">
      <g id="realstate">
        <path class="cls-3" d="m347.15,374.72h-149c-49.64,0-89.87-40.24-89.87-89.87v-156.26c0-49.64,40.24-89.87,89.87-89.87h187.91c49.64,0,89.87,40.24,89.87,89.87v156.26c0,49.64-40.24,89.87-89.87,89.87h-2.49"/>
        <line class="cls-3" x1="113.28" y1="131.45" x2="475.94" y2="132.31"/>
        <line class="cls-3" x1="187.68" y1="41.45" x2="252.79" y2="128"/>
        <line class="cls-3" x1="318.94" y1="41.06" x2="384.04" y2="127.62"/>
        <polyline class="cls-2" points="260.68 220.51 260.6 299.06 323.32 266.23 336.6 259.12 348.38 252.81 350.21 251.83 260.85 192.85 260.69 215.91 260.51 231.06"/>
      </g>
    </g>
  </g>
  <path class="cls-3" d="m510.55,155.49l80.17-35.4s-17.73,87.84-17.53,94.98,18.3,85.79,18.3,85.79l-113.96-37.11"/>
</svg>