<?xml version="1.0" encoding="utf-8"?>
<!-- Generator: Adobe Illustrator 27.3.1, SVG Export Plug-In . SVG Version: 6.00 Build 0)  -->
<svg version="1.1" id="Layer_1" xmlns="http://www.w3.org/2000/svg" xmlns:xlink="http://www.w3.org/1999/xlink" x="0px" y="0px"
	 viewBox="0 0 481.7 490.5" style="enable-background:new 0 0 481.7 490.5;" xml:space="preserve">
<style type="text/css">
	.st0{fill:#FFFFFF;}
	.st1{fill:none;stroke:#474748;stroke-width:24;stroke-linecap:round;stroke-linejoin:round;}
	.st2{fill:none;stroke:#548ED3;stroke-width:24;stroke-linecap:round;stroke-linejoin:round;}
</style>
<rect x="-71.9" y="-10.8" class="st0" width="602.6" height="497.4"/>
<g id="Layer_2_00000178181519977082560720000014446928669038681483_">
	<g id="Layer_22">
		<g id="realstate">
			<path class="st1" d="M240,438H99.2c-46.9,0-84.9-38-84.9-84.9V205.5c0-46.9,38-84.9,84.9-84.9h177.5c46.9,0,84.9,38,84.9,84.9
				v147.7c0,46.9-38,84.9-84.9,84.9h-2.4"/>
			<line class="st1" x1="19" y1="208.2" x2="361.6" y2="209"/>
			<line class="st1" x1="89.3" y1="123.2" x2="150.8" y2="204.9"/>
			<line class="st1" x1="213.3" y1="122.8" x2="274.8" y2="204.6"/>
			<polyline class="st2" points="150.3,296.3 150.2,370.6 209.4,339.5 222,332.8 233.1,326.9 234.8,325.9 150.5,270.3 150.3,292 
				150.1,306.4 			"/>
		</g>
	</g>
</g>
<path class="st1" d="M394.4,230.9l75.8-33.4c0,0-16.7,83-16.5,89.8c0.2,6.8,17.3,81.1,17.3,81.1l-107.7-35.1"/>
<path class="st1" d="M382.8,236.2"/>
</svg>
