<svg xmlns="http://www.w3.org/2000/svg" viewBox="0 0 481.67 490.54"><defs><style>.cls-1,.cls-2{fill:none;stroke-linecap:round;stroke-linejoin:round;stroke-width:24px;}.cls-1{stroke:#474748;}.cls-2{stroke:#557ebf;}</style></defs><title>realstate_1</title><g id="Layer_2" data-name="Layer 2"><g id="Layer_22" data-name="Layer 22"><g id="realstate"><path class="cls-1" d="M387.39,225.09h33.1V414.3c0,36.07-32.53,64.24-72.66,64.24h-214c-40.13,0-72.66-29.24-72.66-65.31"/><polyline class="cls-1" points="61.18 413.23 61.18 225.09 351.75 225.09"/><path class="cls-1" d="M458.35,221.59c12.95-8,16.17-27.93,2.37-39.06L255.86,17.3a23.94,23.94,0,0,0-30.05,0L21,182.53c-13.18,10.63-10.84,29.25.68,37.9"/><path class="cls-2" d="M180.38,375.6V330.66a24.48,24.48,0,0,1,24.48-24.48h71.95a24.48,24.48,0,0,1,24.48,24.48v123.4a24.48,24.48,0,0,1-24.48,24.48H204.86a24.48,24.48,0,0,1-24.48-24.48V407.64"/></g></g></g></svg>