<svg xmlns="http://www.w3.org/2000/svg" viewBox="0 0 492.65 295.04"><defs><style>.cls-1,.cls-2{fill:none;stroke-linecap:round;stroke-linejoin:round;stroke-width:24px;}.cls-1{stroke:#557ebf;}.cls-2{stroke:#474748;}</style></defs><title>sport_1</title><g id="Layer_2" data-name="Layer 2"><g id="Layer_22" data-name="Layer 22"><polyline class="cls-1" points="304.69 21.96 305.24 22.35 305.25 22.36 322.3 34.66 322.89 35.08 329.3 39.7 329.37 39.75 349.16 54.03 349.29 54.12 349.48 54.25 349.56 54.19 349.79 54.03 392.19 23 393.64 21.94"/><line class="cls-1" x1="349.48" y1="54.24" x2="349.48" y2="65.66"/><polyline class="cls-1" points="427.53 120.31 435.04 117.68 435.35 116.75 452.61 64.89 452.61 64.87 452.69 64.64"/><polyline class="cls-1" points="435.04 117.68 480.37 149.81 480.58 149.96"/><polyline class="cls-1" points="397.33 211.13 402.43 217.61 459.26 217.61"/><polyline class="cls-1" points="402.43 217.61 402.43 217.62 401.88 219.31 385.14 272.14 385.12 272.2"/><polyline class="cls-1" points="313.09 272.15 313.05 272.05 312.02 268.72 302.18 237.28 301.11 233.87"/><path class="cls-2" d="M274.51,37.49A131.47,131.47,0,0,1,480.65,145.7c0,1.42,0,2.84-.07,4.26a131.42,131.42,0,0,1-204,105.36"/><polyline class="cls-2" points="326.67 188.39 379.94 188.39 399.08 130.16 349.46 94.98 329.08 109.84"/><path class="cls-1" d="M116.8,138.54c11.28-4.36,23.08-8.32,35.43-11.79l1-.29a412,412,0,0,1,48.25-10.34l.31,0q16.53-2.53,34.15-3.85Q253.13,111,271.31,111"/><path class="cls-1" d="M26,188.48A388.31,388.31,0,0,1,82,154"/><circle class="cls-2" cx="147.52" cy="147.52" r="135.52"/><path class="cls-2" d="M118.33,15.15h0c30.3,16.72,64.15,50,83.5,100.93,15,39.41,21.26,89.4,10.49,150.49"/><path class="cls-2" d="M274.49,195C257.38,176.47,240,150,236,112.23c-1.95-18.21-.8-39,5-62.85"/><path class="cls-2" d="M46.77,56.88c47.12,2.73,86.66,28.72,105.46,69.87,18.28,40.05,16.94,94.47-16.18,155.81"/></g></g></svg>