<svg xmlns="http://www.w3.org/2000/svg" viewBox="0 0 399.19 489.24"><defs><style>.cls-1,.cls-2{fill:none;stroke-linecap:round;stroke-linejoin:round;stroke-width:24px;}.cls-1{stroke:#474748;}.cls-2{stroke:#557ebf;}</style></defs><title>student_1</title><g id="Layer_2" data-name="Layer 2"><g id="Layer_22" data-name="Layer 22"><g id="student"><g id="M"><path class="cls-1" d="M133.16,356.53H98.3a36.78,36.78,0,0,0-34.78,48.75l17.25,50.13a32.35,32.35,0,0,0,30.59,21.83H287.13a32.36,32.36,0,0,0,30.59-21.83L335,405.28a36.78,36.78,0,0,0-34.78-48.75H176.5"/><path class="cls-1" d="M280.36,212.41a82.85,82.85,0,1,1-162.91,3.66"/></g><line class="cls-1" x1="12" y1="97.28" x2="12" y2="221.79"/><line class="cls-1" x1="12" y1="257.86" x2="12" y2="279.73"/><path class="cls-1" d="M274.24,89.22l-.53-.31A147.08,147.08,0,0,0,125,89.22h0v88.56h0a371.29,371.29,0,0,1,148.61-.14l.68.14Z"/><polyline class="cls-2" points="301.82 131.04 387.19 93.91 199.59 12 12 93.91 87.45 126.88"/></g></g></g></svg>