<svg xmlns="http://www.w3.org/2000/svg" viewBox="0 0 487.13 426.32"><defs><style>.cls-1,.cls-2{fill:none;stroke-linecap:round;stroke-linejoin:round;stroke-width:24px;}.cls-1{stroke:#474748;}.cls-2{stroke:#557ebf;}</style></defs><title>team_1</title><g id="Layer_2" data-name="Layer 2"><g id="Layer_22" data-name="Layer 22"><g id="team"><g id="M"><line class="cls-1" x1="124.56" y1="158.43" x2="94.94" y2="158.43"/><path class="cls-1" d="M62,158.43H37.67a25.65,25.65,0,0,0-24.25,34L83.81,397c7.94,23.07,40.57,23.07,48.51,0l33.52-97.44"/><path class="cls-1" d="M73.69,23.33A57.66,57.66,0,1,1,53.31,51.27"/></g><g id="M-2" data-name="M"><line class="cls-2" x1="260.39" y1="158.43" x2="231.4" y2="158.43"/><path class="cls-2" d="M197.8,158.43H173.5a25.66,25.66,0,0,0-24.26,34L219.63,397c7.94,23.07,40.58,23.07,48.51,0l33.53-97.44"/><path class="cls-2" d="M209.51,23.33a57.69,57.69,0,1,1-20.8,29.27"/></g><g id="M-3" data-name="M"><path class="cls-1" d="M333,158.43H308.67a25.65,25.65,0,0,0-24.25,34L354.81,397c7.94,23.07,40.57,23.07,48.51,0l70.39-204.58a25.65,25.65,0,0,0-24.25-34H366.74"/><path class="cls-1" d="M344.69,23.33A57.67,57.67,0,1,1,323.88,52.6"/></g></g></g></g></svg>