<?xml version="1.0" encoding="utf-8"?>
<!-- Generator: Adobe Illustrator 27.3.1, SVG Export Plug-In . SVG Version: 6.00 Build 0)  -->
<svg version="1.1" id="Layer_1" xmlns="http://www.w3.org/2000/svg" xmlns:xlink="http://www.w3.org/1999/xlink" x="0px" y="0px"
	 viewBox="0 0 489.2 489.2" style="enable-background:new 0 0 489.2 489.2;" xml:space="preserve">
<style type="text/css">
	.st0{fill:#FFFFFF;}
	.st1{fill:none;stroke:#474748;stroke-width:24;stroke-linecap:round;stroke-linejoin:round;}
	.st2{fill:none;stroke:#557EBF;stroke-width:24;stroke-linecap:round;stroke-linejoin:round;}
</style>
<rect x="-17.8" y="-16.9" class="st0" width="528" height="527"/>
<path class="st1" d="M92.4,61.8c17.7-22.8,45.4-37.6,76.3-37.6H382c53.1,0,96.5,43.4,96.5,96.5v257.7c0,53.1-43.4,96.5-96.5,96.5
	H168.7c-53.1,0-96.5-43.4-96.5-96.5v-92.2"/>
<path class="st1" d="M88.6,65.8"/>
<path class="st1" d="M286.3,247L92.7,224.6L71.6,227c0,0-20.9,33.7-44.1,21.2s-20-58,17.8-51c37.8,7,61.7,12.7,61.7,12.7L286.3,247z
	"/>
<polyline class="st2" points="228.3,226.7 226,321.3 302.5,283.6 318.7,275.4 333.1,268.1 335.4,267 229.3,193.3 228.5,221.1 
	227.8,239.4 "/>
<path class="st1" d="M257.4,313.6L118.1,177.3l-11.4-17.9c0,0,10.3-32.4-11.2-47.6c-71-50-88.2,29.4-28.4,45.9
	c37,10.2,48.7,39.9,48.7,39.9L257.4,313.6z"/>
</svg>
