<svg xmlns="http://www.w3.org/2000/svg" viewBox="0 0 493.86 308.96"><defs><style>.cls-1,.cls-2,.cls-3,.cls-4{fill:none;stroke-linecap:round;stroke-linejoin:round;}.cls-1,.cls-3{stroke:#474748;}.cls-1,.cls-2{stroke-width:24px;}.cls-2,.cls-4{stroke:#557ebf;}.cls-3,.cls-4{stroke-width:10px;}</style></defs><title>wbg_1</title><g id="Layer_2" data-name="Layer 2"><g id="Layer_22" data-name="Layer 22"><g id="wbg"><line class="cls-1" x1="62.77" y1="54.22" x2="12.76" y2="54.22"/><line class="cls-1" x1="481.1" y1="54.22" x2="432.62" y2="54.22"/><line class="cls-1" x1="36.49" y1="40.52" x2="36.49" y2="219.8"/><line class="cls-1" x1="459.02" y1="40.52" x2="459.02" y2="219.8"/><path class="cls-2" d="M62,142.94V12H431.86V142.94a181.4,181.4,0,0,0,14.66,71.42L481.86,297H12l35.35-82.6A181.58,181.58,0,0,0,62,142.94Z"/><path class="cls-3" d="M224.53,180.87l-22.82-28.69c-.69-.88-2.55-3.12-2.55-3.12s2.86-2,3.87-2.47A12,12,0,0,0,210,135.76a11.84,11.84,0,0,0-4.72-9.49c-.81-.62-3.7-2.56-3.7-2.56s2.51-2,3.18-2.78a8.93,8.93,0,0,0,2.27-6,9,9,0,0,0-6.32-8.56,3.67,3.67,0,0,1-2.58-3.5v-2.47A5.91,5.91,0,0,1,202,94.9a11.23,11.23,0,0,0-3.15-21.71c-.27,0-.55,0-.82,0a11,11,0,0,0-7.64,3,11.27,11.27,0,0,0-3.57,8.21.06.06,0,0,0,.12,0A11.11,11.11,0,0,1,198,73.27q.39,0,.78,0a11.12,11.12,0,0,1,3.12,21.5,6.09,6.09,0,0,0-4,5.65v2.47a3.67,3.67,0,0,1-2.58,3.5,8.95,8.95,0,0,0-4.06,14.51c.68.76,3,2.78,3,2.78s-2.74,1.94-3.56,2.56a11.84,11.84,0,0,0-4.72,9.49A12,12,0,0,0,193,146.59c1,.47,3.95,2.47,3.95,2.47s-1.93,2.24-2.63,3.12l-22.81,28.69a33.85,33.85,0,0,0,36.05,53.55s0,0,0-.06a.05.05,0,0,0,0-.05,34,34,0,0,1-9.54,1.37,33.74,33.74,0,0,1-26.42-54.74l23.55-29.62a3.67,3.67,0,0,1,5.72,0l23.55,29.62a33.75,33.75,0,0,1,6,30.52.09.09,0,0,0,0,0s0,0,0,0h0s0,0,0,0A33.91,33.91,0,0,0,224.53,180.87ZM189.18,115a8.85,8.85,0,1,1,8.85,8.85A8.86,8.86,0,0,1,189.18,115Zm8.85,32.6a11.82,11.82,0,1,1,11.82-11.82A11.84,11.84,0,0,1,198,147.58Z"/><path class="cls-4" d="M211.75,191l-13.67-17.2-.05,0a.05.05,0,0,0,0,0L184.31,191a17.53,17.53,0,1,0,27.44,0Zm-1.4,23.22A17.42,17.42,0,0,1,184.4,191.1l10.77-13.54L198,174s2.17,2.72,2.86,3.6l10.78,13.54A17.41,17.41,0,0,1,210.35,214.25Z"/><path class="cls-4" d="M222,225.84l0,0,0,0,0,0,0,0,0,0a.05.05,0,0,1,0,0h0Z"/><path class="cls-3" d="M322.34,180.87l-22.82-28.69c-.7-.88-2.56-3.12-2.56-3.12a45.11,45.11,0,0,1,3.88-2.47,12,12,0,0,0,6.93-10.83,11.84,11.84,0,0,0-4.72-9.49c-.81-.62-3.7-2.56-3.7-2.56s2.5-2,3.18-2.78a8.93,8.93,0,0,0,2.27-6,9,9,0,0,0-6.33-8.56,3.66,3.66,0,0,1-2.57-3.5v-2.47a5.9,5.9,0,0,1,3.89-5.55,11.23,11.23,0,0,0-3.15-21.71l-.82,0a11,11,0,0,0-7.64,3,11.27,11.27,0,0,0-3.57,8.21s0,0,.06,0a0,0,0,0,0,.05,0,11.11,11.11,0,0,1,11.12-11.12c.26,0,.53,0,.78,0a11.12,11.12,0,0,1,3.13,21.5,6.1,6.1,0,0,0-4,5.65v2.47a3.66,3.66,0,0,1-2.58,3.5,9,9,0,0,0-6.32,8.56,8.91,8.91,0,0,0,2.27,6c.67.76,3,2.78,3,2.78s-2.75,1.94-3.56,2.56a11.84,11.84,0,0,0-4.72,9.49,12,12,0,0,0,6.93,10.83c1,.47,4,2.47,4,2.47s-1.93,2.24-2.63,3.12l-22.82,28.69a33.85,33.85,0,0,0,36.06,53.55.05.05,0,0,0,0-.06.07.07,0,0,0-.06-.05,33.89,33.89,0,0,1-9.53,1.37,33.74,33.74,0,0,1-26.42-54.74L293,151.32a3.67,3.67,0,0,1,5.72,0l23.55,29.62a33.75,33.75,0,0,1,6,30.52.09.09,0,0,0,0,0s0,0,0,0h0s.05,0,.06,0A33.94,33.94,0,0,0,322.34,180.87ZM287,115a8.85,8.85,0,1,1,8.85,8.85A8.86,8.86,0,0,1,287,115Zm8.85,32.6a11.82,11.82,0,1,1,11.82-11.82A11.83,11.83,0,0,1,295.84,147.58Z"/><path class="cls-4" d="M309.56,191l-13.68-17.2a.05.05,0,0,0,0,0l0,0L282.12,191a17.53,17.53,0,1,0,27.44,0Zm-1.4,23.22a17.42,17.42,0,0,1-26-23.15L293,177.56c.69-.88,2.86-3.6,2.86-3.6s2.17,2.72,2.86,3.6l10.77,13.54A17.4,17.4,0,0,1,308.16,214.25Z"/><path class="cls-4" d="M319.79,225.84v0l0,0,0,0,0,0v0a.05.05,0,0,1,.05,0h0A.43.43,0,0,0,319.79,225.84Z"/></g></g></g></svg>