<svg xmlns="http://www.w3.org/2000/svg" viewBox="0 0 477.29 489.24"><defs><style>.cls-1,.cls-2{fill:none;stroke-linecap:round;stroke-linejoin:round;stroke-width:24px;}.cls-1{stroke:#474748;}.cls-2{stroke:#557ebf;}</style></defs><title>wedding_1</title><g id="Layer_2" data-name="Layer 2"><g id="Layer_22" data-name="Layer 22"><g id="wedding"><g id="M"><path class="cls-1" d="M301.44,181.12h-28a29.57,29.57,0,0,0-28,39.19L326.6,456.13c9.15,26.59,46.77,26.59,55.92,0l81.14-235.82a29.57,29.57,0,0,0-28-39.19H409.23"/><path class="cls-1" d="M314.93,25.39A66.51,66.51,0,1,1,292.1,55.77"/></g><g id="F"><path class="cls-1" d="M72,267.79l8.76-25.47,14.07-40.87c9.15-26.6,46.77-26.6,55.92,0l14.05,40.85,7.18,20.85"/><path class="cls-1" d="M167.75,127.69a66.47,66.47,0,1,1,19.12-31.08"/></g><polyline class="cls-2" points="365.26 190.3 381.72 199.8 381.72 168.44 354.56 184.12 327.4 199.8 327.4 168.44 344.41 178.26"/><g id="F-2" data-name="F"><path class="cls-2" d="M178.81,409.33l5.58,28.72c3.74,19.19-4.33,39.19-15.8,39.19H155.1"/><path class="cls-2" d="M85.09,477.24H76.87c-11.47,0-19.52-20-15.8-39.19l5.59-28.72"/></g><g id="F-3" data-name="F"><path class="cls-2" d="M36.09,476.73a29.59,29.59,0,0,1-22.46-38.68L48,338.19l26.44-76.87a18.18,18.18,0,0,1,28-8.76,50.8,50.8,0,0,1,20.28,40.65,50.73,50.73,0,0,1,11-31.64,51.8,51.8,0,0,1,9.13-8.93A18.21,18.21,0,0,1,171,261.32c9.3,27,25.76,74.85,26.45,76.86l34.35,99.87a29.57,29.57,0,0,1-28,39.19H81.22"/></g></g></g></g></svg>