<?xml version="1.0" encoding="utf-8"?>
<!-- Generator: Adobe Illustrator 27.3.1, SVG Export Plug-In . SVG Version: 6.00 Build 0)  -->
<svg version="1.1" id="Layer_1" xmlns="http://www.w3.org/2000/svg" xmlns:xlink="http://www.w3.org/1999/xlink" x="0px" y="0px"
	 viewBox="0 0 489.2 489.2" style="enable-background:new 0 0 489.2 489.2;" xml:space="preserve">
<style type="text/css">
	.st0{fill:#FFFFFF;}
	.st1{fill:none;stroke:#474748;stroke-width:24;stroke-linecap:round;stroke-linejoin:round;}
	.st2{fill:none;stroke:#557EBF;stroke-width:24;stroke-linecap:round;stroke-linejoin:round;}
	.st3{fill:none;stroke:#63A1E5;stroke-width:24;stroke-linecap:round;stroke-linejoin:round;}
	.st4{fill:none;stroke:#5178B5;stroke-width:24;stroke-linecap:round;stroke-linejoin:round;}
</style>
<rect x="-24" y="-38.4" class="st0" width="534.1" height="548.4"/>
<path class="st1" d="M508.1,193.3"/>
<g id="M">
	<path class="st1" d="M395.2,350.1"/>
	<path class="st1" d="M265.5,350.1"/>
	<path class="st1" d="M292.3,350.1"/>
	<path class="st1" d="M305.1,201.4c28.2-20.8,68-14.9,88.8,13.3c20.8,28.2,14.9,68-13.3,88.8c-28.2,20.8-68,14.9-88.8-13.3
		c-12.7-17.2-15.9-39.7-8.5-59.8"/>
</g>
<g id="F">
	<path class="st1" d="M229.9,299.1c-25.9,23.7-66,21.9-89.7-4s-21.9-66,4-89.7s66-21.9,89.7,4c14.8,16.2,20.2,38.9,14.3,60"/>
</g>
<path class="st1" d="M224.8,401.7l7.7,0.1c9.8,0.1,17.7-8.4,16.6-18.5c-0.1-1.2-0.4-2.3-0.8-3.4l-7.5-22.4c-0.1-0.2-0.2-0.5-0.3-0.7
	c-2.9-7.3-11.7-10.1-18.6-6.3l-27.2,15.4c-5.7,3.2-12.7,3-18.2-0.5l-23.2-15c-6.7-4.3-15.8-1.7-18.8,5.6c-0.1,0.2-0.2,0.5-0.3,0.7
	l-7.9,22.5c-3,8.6,1.5,18.1,10.1,21.1c1.7,0.6,3.5,0.9,5.4,0.9l49.4,0.4"/>
<path class="st1" d="M373.6,401.6l13.1-0.4c9.1,0.1,16.6-7.3,16.7-16.4c0-1.8-0.3-3.7-0.9-5.4l-7.6-22.6c-2-5.9-7.5-9.9-13.7-9.9
	l-24.4-0.2l-16.8-0.1l-17.9-0.1l-19.9-0.2c-6.2,0-11.8,3.9-13.8,9.7l-7.9,22.5c-3,8.6,1.5,18.1,10.1,21.1c1.7,0.6,47.4,0.9,49.2,0.9
	"/>
<path class="st2" d="M183.8,118.6c0,0-11.7,10.4-20.4,20s-20.7,9-20.7,9l-0.7,15.9c0,0-60.8,19.1-49,119.6c0,0,1.6,33-28.3,58.9
	l39.3,0.2"/>
<path class="st2" d="M226.6,162.8l-0.7-15.9c0,0-12.1,0.7-20.7-9s-20.4-20-20.4-20"/>
<path class="st3" d="M229.8,182.5"/>
<polyline class="st2" points="349.7,354.7 362.4,362 362.4,337.9 341.5,349.9 320.6,362 320.6,337.9 333.7,345.4 "/>
<path class="st4" d="M477.6,476.7H13.4v-232c0-128.2,103.9-232.1,232.1-232.1h0c128.2,0,232.1,103.9,232.1,232.1V476.7z"/>
</svg>
