<svg xmlns="http://www.w3.org/2000/svg" viewBox="0 0 433.82 433.82"><defs><style>.cls-1{fill:#4286f5;}.cls-2{fill:#fff;}</style></defs><title>Verify</title><g id="Layer_2" data-name="Layer 2"><g id="Layer_1-2" data-name="Layer 1"><path class="cls-1" d="M226.73,4.07l31.54,31.61a13.87,13.87,0,0,0,13.43,3.6l43.12-11.6a13.87,13.87,0,0,1,17,9.82l11.51,43.15a13.88,13.88,0,0,0,9.83,9.82L396.32,102a13.87,13.87,0,0,1,9.82,17l-11.61,43.13a13.88,13.88,0,0,0,3.6,13.42l31.61,31.55a13.88,13.88,0,0,1,0,19.64l-31.61,31.54a13.9,13.9,0,0,0-3.6,13.43l11.61,43.12a13.88,13.88,0,0,1-9.82,17l-43.15,11.51a13.87,13.87,0,0,0-9.83,9.83l-11.51,43.15a13.88,13.88,0,0,1-17,9.82L271.7,394.53a13.9,13.9,0,0,0-13.43,3.6l-31.54,31.61a13.88,13.88,0,0,1-19.64,0l-31.55-31.61a13.88,13.88,0,0,0-13.42-3.6L119,406.14a13.87,13.87,0,0,1-17-9.82L90.47,353.17a13.88,13.88,0,0,0-9.82-9.83L37.5,331.83a13.87,13.87,0,0,1-9.82-17l11.6-43.12a13.87,13.87,0,0,0-3.6-13.43L4.07,226.73a13.88,13.88,0,0,1,0-19.64l31.61-31.55a13.86,13.86,0,0,0,3.6-13.42L27.68,119a13.85,13.85,0,0,1,9.82-17L80.65,90.47a13.88,13.88,0,0,0,9.82-9.82L102,37.5a13.85,13.85,0,0,1,17-9.82l43.13,11.6a13.86,13.86,0,0,0,13.42-3.6L207.09,4.07A13.88,13.88,0,0,1,226.73,4.07Z"/><path class="cls-2" d="M184.83,296.07a18,18,0,0,1-12.73-5.27l-58.16-58.16a18,18,0,0,1,25.46-25.46l45.43,45.43L294.42,143a18,18,0,0,1,25.46,25.46L197.56,290.8A18,18,0,0,1,184.83,296.07Z"/></g></g></svg>